<?xml version="1.0" standalone="no"?>
<!DOCTYPE svg PUBLIC "-//W3C//DTD SVG 20010904//EN"
 "http://www.w3.org/TR/2001/REC-SVG-20010904/DTD/svg10.dtd">
<svg version="1.0" xmlns="http://www.w3.org/2000/svg"
 width="1024.000000pt" height="1024.000000pt" viewBox="0 0 1024.000000 1024.000000"
 preserveAspectRatio="xMidYMid meet">
<g transform="translate(0.000000,1024.000000) scale(0.050000,-0.050000)"
fill="#000000" stroke="none">
<path d="M13060 14259 c-477 -48 -782 -231 -1425 -855 -333 -322 -498 -446
-661 -494 -458 -136 -1290 -134 -2414 5 -591 74 -1360 78 -1667 9 -941 -210
-1770 -824 -2032 -1505 -293 -760 -161 -1333 294 -1272 52 7 112 15 132 18 32
4 43 -21 73 -165 37 -181 114 -393 272 -750 139 -315 137 -401 -18 -712 -189
-380 -189 -309 8 -1468 136 -806 164 -850 533 -850 363 0 384 60 313 893 -59
701 -54 721 264 976 201 162 417 366 515 488 l54 67 174 -71 c660 -267 1240
-282 2367 -61 249 48 462 88 474 88 12 0 54 -64 93 -141 39 -78 115 -211 170
-295 156 -244 154 -236 232 -994 96 -936 100 -942 542 -937 397 6 396 5 317
507 -113 710 -94 1178 59 1504 48 102 103 237 123 300 33 108 43 119 162 189
490 287 727 666 944 1508 339 1320 598 1561 1512 1410 571 -95 869 105 846
568 -14 286 -140 493 -565 931 -251 258 -274 290 -352 477 -169 411 -761 690
-1339 632z m570 -288 c307 -103 474 -236 562 -447 88 -211 137 -278 378 -524
462 -471 590 -708 511 -946 -63 -193 -209 -234 -618 -174 -726 107 -992 14
-1294 -449 -196 -300 -303 -586 -446 -1191 -102 -430 -210 -682 -395 -923 -88
-113 -320 -337 -351 -337 -21 0 -21 3 2 150 82 522 67 690 -61 690 -80 0 -91
-32 -128 -370 -60 -555 -131 -833 -294 -1163 -144 -292 -165 -850 -57 -1515
23 -139 41 -266 41 -282 0 -41 -304 -43 -338 -3 -29 36 -72 326 -122 843 -64
655 -79 713 -241 952 -179 263 -355 691 -426 1036 -37 177 -69 218 -148 190
-83 -30 -64 -299 46 -650 11 -36 -113 -65 -801 -191 -560 -102 -1113 -110
-1460 -20 -180 47 -519 161 -547 184 -4 3 34 81 83 173 207 381 327 883 234
976 -90 90 -157 32 -191 -165 -103 -591 -411 -1089 -936 -1510 -456 -366 -468
-407 -384 -1285 55 -590 52 -602 -153 -574 -146 20 -144 13 -276 805 -150 899
-150 903 -22 1150 212 408 213 566 11 1019 -264 591 -317 930 -220 1430 31
164 17 210 -67 210 -93 0 -139 -108 -187 -447 l-25 -178 -96 -37 c-535 -210
-295 1027 303 1562 786 704 1478 884 2848 741 311 -33 678 -71 815 -85 433
-44 1304 -34 1592 18 444 81 541 139 1045 629 751 730 1213 910 1813 708z"/>
<path d="M12807 13379 c-352 -350 -398 -1199 -65 -1199 268 0 599 244 749 552
99 204 89 308 -30 308 -74 -1 -86 -14 -165 -183 -102 -217 -347 -436 -489
-437 -159 -1 -45 574 165 833 76 94 88 175 29 206 -64 35 -89 25 -194 -80z"/>
<path d="M15135 9826 c-149 -39 -567 -976 -745 -1675 -40 -154 -74 -282 -78
-285 -3 -4 -53 89 -109 206 -221 455 -622 988 -742 988 -124 0 -129 -79 -24
-351 182 -466 330 -993 393 -1399 39 -245 35 -260 -37 -152 -130 198 -456 474
-723 613 -154 80 -176 83 -230 29 -68 -68 -49 -127 133 -394 272 -400 358
-598 458 -1061 12 -53 90 -62 129 -15 69 83 -31 512 -194 837 -111 221 -102
230 61 65 168 -170 350 -443 435 -651 85 -208 192 -264 260 -138 62 116 -78
1096 -232 1625 -28 97 -48 181 -43 186 29 28 270 -499 342 -746 86 -297 243
-329 280 -58 92 670 404 1571 721 2080 101 160 112 232 46 279 -25 17 -50 30
-55 29 -6 -2 -27 -7 -46 -12z"/>
<path d="M15284 8605 c-438 -468 -1041 -1895 -867 -2052 79 -72 138 -42 213
107 92 182 243 360 495 579 69 60 92 41 39 -33 -125 -176 -324 -671 -324 -807
0 -41 16 -68 52 -92 89 -59 148 -8 200 173 104 363 288 688 548 969 146 157
170 218 109 280 -82 81 -523 -116 -831 -372 -66 -55 -124 -98 -128 -94 -47 48
403 889 609 1137 134 162 144 225 42 280 -57 30 -61 28 -157 -75z"/>
</g>
</svg>
