<?xml version="1.0" standalone="no"?>
<!DOCTYPE svg PUBLIC "-//W3C//DTD SVG 20010904//EN"
 "http://www.w3.org/TR/2001/REC-SVG-20010904/DTD/svg10.dtd">
<svg version="1.0" xmlns="http://www.w3.org/2000/svg"
 width="1024.000000pt" height="1024.000000pt" viewBox="0 0 1024.000000 1024.000000"
 preserveAspectRatio="xMidYMid meet">
<g transform="translate(0.000000,1024.000000) scale(0.050000,-0.050000)"
fill="#000000" stroke="none">
<path d="M14830 15387 c-883 -187 -1383 -632 -1574 -1401 -53 -212 -63 -688
-19 -860 l26 -103 -148 -247 c-81 -135 -177 -298 -213 -362 -82 -144 -84 -141
-59 56 112 865 -206 1541 -955 2030 -241 158 -279 151 -402 -74 -382 -696
-390 -1397 -20 -1953 195 -292 846 -893 968 -893 16 0 26 -7 22 -15 -152 -303
-446 -969 -545 -1235 -41 -110 -77 -202 -80 -205 -18 -19 -871 -68 -1351 -78
l-570 -12 -87 114 c-133 173 -553 673 -782 931 l-205 230 287 16 c347 19 1711
28 2274 14 457 -11 519 6 428 119 -126 155 -2775 214 -3151 70 -28 -11 -1531
1625 -1909 2079 l-148 177 17 153 c85 787 -428 1047 -1128 571 -854 -580 -889
-1352 -66 -1450 228 -27 169 29 455 -439 774 -1271 840 -1399 722 -1400 -133
-1 -582 -207 -712 -326 -138 -127 -150 -172 -160 -574 -42 -1642 746 -3215
1935 -3864 99 -54 119 -73 110 -106 -106 -377 15 -914 232 -1025 557 -286
3207 -320 4133 -54 279 80 381 338 356 899 l-13 280 173 108 c832 518 1468
1388 1718 2352 165 638 198 1646 60 1883 -124 214 -409 268 -409 77 0 -49 13
-65 130 -159 165 -133 -202 -288 -1020 -433 -249 -43 -1013 -142 -1024 -131
-7 7 77 221 215 547 78 182 410 884 427 901 4 4 82 -30 172 -75 918 -462 1816
-354 2508 302 267 252 267 313 4 495 -685 474 -1563 488 -2230 36 l-89 -60 67
119 c37 65 117 199 179 298 l111 179 170 35 c1044 215 1538 825 1540 1904 1
550 -51 627 -370 559z m117 -405 c45 -529 -127 -1087 -418 -1359 -190 -178
-767 -471 -821 -418 -5 5 122 211 282 457 309 474 336 541 228 554 -76 9 -353
-307 -646 -736 l-102 -150 -6 120 c-42 803 403 1391 1238 1638 243 72 230 78
245 -106z m-8647 -559 c86 -86 110 -200 83 -394 -53 -373 -94 -312 1014 -1528
1464 -1607 2185 -2425 2160 -2451 -26 -26 -1689 88 -1844 127 -60 15 -154 162
-902 1423 -1023 1723 -994 1684 -1271 1709 -403 36 -520 175 -381 450 241 476
928 877 1141 664z m5831 -453 c411 -401 567 -1000 430 -1650 -38 -180 -42
-179 -102 30 -118 406 -297 795 -371 806 -99 14 -98 -35 9 -390 121 -401 209
-747 194 -761 -36 -37 -456 386 -599 602 -248 378 -299 681 -189 1130 41 167
162 490 201 537 29 35 218 -99 427 -304z m2512 -1591 c240 -49 415 -116 582
-224 l124 -80 -89 -80 c-586 -523 -1204 -635 -1945 -351 -85 32 -155 66 -155
74 0 16 452 105 780 152 261 38 260 38 260 100 0 101 -360 118 -817 39 -229
-40 -233 -36 -89 79 370 294 838 396 1349 291z m-7721 -1484 c39 -69 146 -245
236 -393 90 -147 160 -271 156 -275 -16 -16 -612 113 -794 173 -219 71 -467
198 -476 245 -15 77 522 329 796 373 6 1 42 -55 82 -123z m-318 -793 c1856
-479 6369 -384 7533 159 70 32 131 59 135 59 5 0 8 -101 8 -225 0 -2710 -2397
-4482 -5250 -3882 -1799 379 -2939 1815 -3023 3811 l-13 294 191 -79 c105 -43
294 -105 419 -137z m5648 -3875 c25 -135 -3 -491 -47 -591 -57 -129 -158 -154
-935 -234 -700 -72 -1116 -88 -1600 -63 -459 25 -934 80 -1280 150 -338 69
-370 114 -370 523 0 271 -16 258 209 165 1147 -472 2732 -451 3831 52 186 85
176 85 192 -2z"/>
<path d="M6624 9376 c-104 -104 161 -862 460 -1314 412 -624 1334 -1341 1505
-1171 80 81 38 147 -179 280 -782 478 -1292 1121 -1571 1979 -82 254 -133 308
-215 226z"/>
</g>
</svg>
