<?xml version="1.0" standalone="no"?>
<!DOCTYPE svg PUBLIC "-//W3C//DTD SVG 20010904//EN"
 "http://www.w3.org/TR/2001/REC-SVG-20010904/DTD/svg10.dtd">
<svg version="1.0" xmlns="http://www.w3.org/2000/svg"
 width="1024.000000pt" height="1024.000000pt" viewBox="0 0 1024.000000 1024.000000"
 preserveAspectRatio="xMidYMid meet">
<g transform="translate(0.000000,1024.000000) scale(0.050000,-0.050000)"
fill="#000000" stroke="none">
<path d="M10136 15185 c-17 -19 -35 -71 -41 -115 -17 -135 -203 -478 -505
-931 -474 -711 -576 -976 -527 -1375 151 -1228 2008 -1382 2339 -194 123 440
-30 924 -509 1618 -110 158 -263 418 -364 617 -201 398 -213 415 -299 415 -36
0 -77 -15 -94 -35z m188 -652 c51 -103 214 -368 362 -590 462 -689 548 -1046
354 -1454 -363 -759 -1652 -487 -1696 359 -16 312 61 512 392 1006 235 351
387 615 437 761 47 135 42 137 151 -82z"/>
<path d="M10753 13015 c-16 -25 -33 -67 -40 -95 -26 -111 -143 -267 -260 -347
-142 -96 -172 -150 -125 -222 137 -210 559 150 587 501 14 174 -90 278 -162
163z"/>
<path d="M9710 11228 c-978 -59 -2028 -193 -2273 -289 -54 -22 -137 -39 -185
-39 -126 0 -389 -50 -642 -121 -894 -251 -1356 -643 -1250 -1059 12 -49 35
-178 50 -285 215 -1523 1317 -3100 2604 -3727 1334 -650 3430 -590 4706 134
1189 676 2206 2216 2391 3622 97 739 -200 1063 -1264 1376 -1016 299 -2816
467 -4137 388z m930 -289 c810 -35 1852 -134 2418 -230 1477 -250 2121 -734
1543 -1159 l-105 -77 -63 72 c-657 749 -3452 1106 -5987 764 -1229 -166 -2041
-451 -2321 -815 l-43 -57 -96 56 c-613 358 -354 682 884 1107 154 52 330 116
390 140 61 25 148 44 195 42 47 -1 322 24 611 57 976 110 1708 138 2574 100z
m590 -799 c1287 -85 2396 -356 2885 -706 109 -78 108 -83 -30 -134 -578 -217
-1739 -428 -2865 -519 -1686 -138 -3899 106 -4857 535 l-87 39 97 74 c658 504
2932 837 4857 711z m-5294 -968 c1470 -738 4180 -956 6704 -541 1010 167 1624
340 1991 561 140 84 142 82 102 -79 -179 -712 -742 -1726 -1284 -2310 -934
-1009 -2606 -1446 -4323 -1131 -1524 279 -2776 1529 -3365 3359 -96 300 -96
303 -26 253 30 -21 121 -72 201 -112z"/>
<path d="M10023 9917 c-1081 -41 -2173 -236 -2173 -387 0 -84 19 -84 753 -2
934 104 1174 118 1842 108 666 -11 655 -13 655 130 0 127 -30 134 -610 160
-55 3 -265 -1 -467 -9z"/>
<path d="M11625 9779 c-50 -15 -65 -31 -65 -68 0 -65 -11 -60 362 -140 181
-38 395 -88 476 -111 238 -67 352 -22 315 126 -33 130 -834 272 -1088 193z"/>
<path d="M11220 9348 c-144 -20 -489 -32 -1100 -39 -1002 -12 -980 -10 -980
-80 0 -122 721 -204 1580 -182 761 21 900 50 900 193 0 133 -72 153 -400 108z"/>
</g>
</svg>
