<?xml version="1.0" standalone="no"?>
<!DOCTYPE svg PUBLIC "-//W3C//DTD SVG 20010904//EN"
 "http://www.w3.org/TR/2001/REC-SVG-20010904/DTD/svg10.dtd">
<svg version="1.0" xmlns="http://www.w3.org/2000/svg"
 width="1024.000000pt" height="1024.000000pt" viewBox="0 0 1024.000000 1024.000000"
 preserveAspectRatio="xMidYMid meet">
<g transform="translate(0.000000,1024.000000) scale(0.050000,-0.050000)"
fill="#000000" stroke="none">
<path d="M12929 15701 c-986 -323 -1554 -2331 -976 -3444 96 -184 249 -362
485 -565 405 -349 425 -457 337 -1832 -242 -3781 -232 -4620 61 -4944 188
-208 525 -235 705 -55 300 300 312 855 99 4289 -142 2283 -162 2154 409 2660
442 391 610 863 585 1640 -46 1395 -895 2516 -1705 2251z m394 -148 c811 -191
1407 -1885 1045 -2971 -100 -302 -268 -517 -682 -877 -319 -278 -346 -503
-246 -2035 25 -372 130 -2185 162 -2780 69 -1299 -29 -1928 -309 -1981 -470
-88 -608 598 -494 2441 11 176 39 662 62 1080 22 418 58 1030 80 1360 64 980
50 1446 -48 1659 -53 114 -98 164 -324 358 -204 175 -352 347 -451 523 -657
1171 199 3460 1205 3223z"/>
<path d="M13840 14533 c0 -26 18 -100 41 -165 345 -993 180 -1856 -431 -2260
-218 -144 -124 -248 97 -108 610 387 824 1356 501 2265 -91 256 -208 407 -208
268z"/>
<path d="M6144 15695 c-112 -135 -304 -1680 -304 -2447 0 -997 134 -1339 624
-1598 375 -198 368 -156 287 -1620 -17 -297 -48 -900 -70 -1340 -22 -440 -50
-1020 -64 -1290 -77 -1554 -15 -2259 219 -2507 168 -178 501 -202 675 -49 318
279 333 879 117 4756 -105 1884 -110 1843 245 2038 528 291 637 568 635 1612
-2 677 -133 1913 -250 2356 -34 128 -184 154 -235 42 -33 -72 -56 -432 -82
-1288 -40 -1309 -38 -1280 -91 -1280 -44 0 -46 9 -59 205 -75 1144 -177 2292
-211 2355 -48 89 -152 92 -197 5 -33 -63 -42 -185 -93 -1235 -63 -1330 -63
-1330 -110 -1330 -46 0 -50 35 -90 910 -72 1539 -79 1621 -142 1684 -183 183
-228 -101 -380 -2389 -12 -195 -15 -205 -58 -205 -45 0 -45 3 -58 385 -64
1851 -80 2126 -130 2195 -41 57 -143 77 -178 35z m126 -1641 c17 -569 37
-1049 44 -1066 25 -65 316 -100 361 -43 39 48 36 22 156 1674 17 236 34 432
38 436 8 9 26 -324 42 -795 44 -1285 57 -1350 269 -1350 219 0 231 72 272
1600 16 605 34 663 66 217 143 -1973 113 -1807 324 -1807 237 0 214 -127 259
1490 28 1030 30 1040 107 490 121 -867 167 -1554 134 -1996 -53 -706 -153
-910 -544 -1113 -403 -209 -439 -329 -387 -1291 103 -1908 133 -2480 159
-3088 92 -2112 1 -2614 -449 -2492 -391 105 -434 662 -280 3580 173 3258 188
3053 -237 3269 -497 252 -591 491 -592 1491 0 535 97 1588 182 1970 27 121 43
-135 76 -1176z"/>
<path d="M10471 15322 c-669 -869 -746 -1184 -521 -2142 l68 -290 -55 -275
c-66 -323 -72 -335 -103 -182 -74 377 -235 665 -537 960 -282 276 -325 260
-339 -130 -23 -638 139 -1049 587 -1492 231 -228 222 -193 236 -932 7 -346 18
-687 24 -759 l13 -130 -82 167 c-221 448 -559 787 -991 992 -380 180 -400 154
-279 -379 188 -832 401 -1116 1061 -1420 313 -144 419 -215 445 -296 34 -107
263 -1447 261 -1529 0 -19 -47 55 -105 165 -336 646 -763 950 -1638 1169 -302
75 -304 70 -124 -447 321 -927 597 -1209 1380 -1409 305 -78 388 -111 505
-200 l68 -51 -11 -591 c-10 -558 -33 -833 -97 -1166 -25 -130 -6 -175 76 -175
75 0 145 334 178 850 28 438 125 579 649 940 654 450 855 798 923 1599 38 448
12 472 -300 276 -677 -426 -972 -759 -1194 -1345 -31 -82 -62 -157 -68 -165
-7 -8 -24 105 -38 251 -14 147 -38 352 -54 455 -64 427 9 557 593 1045 532
446 705 805 707 1466 1 480 -31 521 -259 325 -66 -57 -220 -182 -342 -279
-527 -418 -846 -961 -848 -1444 0 -79 -32 -50 -46 41 -6 41 -48 287 -92 545
-210 1220 -200 1307 177 1515 722 399 952 735 1032 1510 23 227 -33 246 -305
103 -523 -275 -769 -502 -961 -888 -72 -145 -84 -161 -85 -108 -1 222 118
1071 181 1295 15 52 82 142 206 277 684 744 823 1267 604 2266 -114 520 -108
520 -500 12z m336 -37 c198 -883 100 -1349 -413 -1959 -137 -163 -159 -176
-134 -81 9 36 67 256 129 489 133 503 151 594 128 629 -48 73 -180 -264 -338
-859 -74 -282 -85 -284 -131 -24 -107 600 2 1010 414 1550 100 132 206 273
235 314 71 99 75 97 110 -59z m-1526 -2080 c315 -343 409 -601 466 -1280 7
-89 -6 -83 -145 60 -321 332 -461 689 -462 1170 0 196 6 198 141 50z m1869
-950 c-75 -477 -192 -715 -460 -940 -131 -111 -529 -362 -546 -346 -19 19 192
301 367 490 191 206 206 228 169 251 -52 32 -355 -248 -500 -462 -83 -122 -78
-117 -90 -105 -17 17 83 288 163 441 113 218 354 449 647 621 272 159 267 159
250 50z m-2314 -1371 c306 -172 590 -478 763 -822 71 -140 206 -484 195 -495
-4 -4 -123 126 -266 287 -396 451 -379 434 -415 420 -65 -25 40 -180 397 -590
245 -282 247 -292 47 -197 -569 271 -730 520 -946 1461 -16 70 -8 68 225 -64z
m2694 -1092 c-65 -317 -190 -549 -422 -784 -144 -145 -572 -510 -584 -498 -29
28 333 636 523 878 103 131 108 147 59 166 -76 30 -409 -402 -595 -771 -112
-225 -115 -224 -79 14 86 579 264 858 848 1325 l270 216 6 -194 c3 -121 -6
-253 -26 -352z m-2840 -1194 c712 -218 1033 -472 1321 -1046 168 -336 163
-352 -45 -143 -248 249 -770 631 -862 631 -69 0 7 -84 246 -269 270 -209 750
-662 750 -707 0 -15 -8 -22 -17 -16 -10 6 -138 42 -285 79 -692 176 -947 431
-1226 1226 -103 293 -107 314 -57 299 19 -6 98 -30 175 -54z m3217 -393 c-48
-543 -187 -904 -454 -1173 -106 -107 -732 -577 -749 -562 -34 30 254 454 496
731 176 201 206 262 137 275 -82 16 -492 -464 -644 -753 -91 -173 -104 -173
-64 -1 146 626 444 1053 1001 1433 291 198 290 198 277 50z"/>
</g>
</svg>
