<?xml version="1.0" standalone="no"?>
<!DOCTYPE svg PUBLIC "-//W3C//DTD SVG 20010904//EN"
 "http://www.w3.org/TR/2001/REC-SVG-20010904/DTD/svg10.dtd">
<svg version="1.0" xmlns="http://www.w3.org/2000/svg"
 width="1024.000000pt" height="1024.000000pt" viewBox="0 0 1024.000000 1024.000000"
 preserveAspectRatio="xMidYMid meet">
<g transform="translate(0.000000,1024.000000) scale(0.050000,-0.050000)"
fill="#000000" stroke="none">
<path d="M9500 17367 c-127 -42 -180 -77 -204 -134 -34 -82 -34 -965 1 -1523
35 -565 99 -1427 133 -1780 61 -644 108 -1358 114 -1750 7 -489 -24 -1740 -43
-1740 -8 0 -30 92 -50 205 -411 2373 -1141 5027 -1477 5371 -247 253 -292 -34
-105 -666 186 -629 300 -1141 620 -2790 311 -1597 452 -2516 601 -3916 65
-606 67 -564 -25 -565 -205 -2 -324 -242 -196 -395 49 -57 49 -61 19 -138 -57
-145 36 -277 214 -301 l84 -11 -14 -272 c-20 -396 -63 -783 -154 -1382 -216
-1431 -260 -1963 -170 -2047 56 -51 235 -113 330 -113 148 0 218 214 363 1116
13 81 26 144 30 140 3 -4 20 -305 38 -670 36 -752 38 -767 106 -835 124 -125
485 -63 485 83 0 39 17 32 69 -29 99 -115 491 -61 562 77 37 72 38 70 -60
1398 -110 1485 -119 3021 -16 2416 12 -69 54 -306 92 -526 39 -220 103 -616
143 -880 173 -1140 366 -2088 442 -2164 95 -95 326 -52 443 82 94 107 93 147
-18 622 -272 1161 -441 2142 -506 2930 l-13 150 146 70 c289 139 325 439 58
493 l-62 12 99 108 c208 227 132 428 -150 399 -71 -7 -129 -6 -129 2 1 178
112 1111 172 1446 215 1200 489 2549 838 4130 447 2027 489 2290 380 2410
-147 163 -266 -52 -548 -991 -600 -2003 -1143 -4209 -1293 -5254 -24 -171 -41
-117 -25 82 81 1005 123 1410 276 2653 44 352 107 906 140 1230 121 1173 171
1548 292 2230 150 841 141 1030 -51 1030 -209 0 -495 -1024 -779 -2800 -118
-736 -394 -2771 -472 -3476 -23 -204 -28 -150 -60 647 -69 1722 -119 2494
-220 3359 -267 2298 -271 2318 -450 2257z m48 -543 c57 -374 260 -2184 301
-2684 83 -1016 172 -3298 203 -5192 l14 -862 -108 -12 c-138 -17 -131 -27
-167 276 -82 717 -100 1592 -63 3240 19 891 14 1027 -99 2320 -148 1688 -218
3258 -142 3164 15 -19 43 -132 61 -250z m1812 -304 c-108 -621 -195 -1270
-290 -2170 -50 -484 -127 -1159 -170 -1500 -196 -1557 -309 -2844 -377 -4296
-20 -420 -16 -410 -160 -427 l-103 -13 0 498 c1 1131 60 1767 400 4288 256
1902 438 2913 685 3800 84 305 90 246 15 -180z m1112 -825 c-18 -114 -177
-855 -384 -1795 -253 -1150 -262 -1187 -347 -1604 -393 -1918 -564 -2939 -620
-3704 -10 -142 -26 -264 -35 -272 -18 -17 -203 -80 -233 -80 -12 0 -14 97 -5
265 58 1120 428 3058 934 4895 44 160 125 457 181 660 215 794 491 1720 513
1720 5 0 3 -38 -4 -85z m-4272 -665 c143 -443 143 -445 281 -950 523 -1920
1119 -5053 1119 -5881 l0 -139 -105 0 c-150 1 -140 -33 -222 720 -174 1593
-327 2533 -764 4703 -200 991 -267 1291 -368 1637 -58 202 -70 256 -53 238 5
-4 55 -152 112 -328z m3280 -6828 c0 -68 -219 -193 -510 -290 -685 -230 -1950
-279 -1950 -75 0 58 30 62 353 39 599 -42 1179 47 1907 291 166 56 200 62 200
35z m29 -505 c178 -177 -1277 -366 -2159 -279 -448 44 -350 82 235 91 461 7
754 40 1105 123 121 29 261 60 310 69 100 17 491 15 509 -4z m-350 -542 c0
-42 28 -287 61 -546 107 -837 175 -1211 381 -2112 167 -727 168 -741 78 -788
-74 -38 -93 -37 -117 8 -34 63 -214 1003 -321 1673 -130 817 -255 1558 -290
1727 -33 155 -36 148 85 162 107 13 120 -1 123 -124z m-1632 45 l57 0 -12
-165 c-6 -91 -21 -345 -33 -565 -52 -986 -175 -1966 -331 -2633 -54 -229 -61
-237 -160 -193 l-53 25 14 220 c23 385 68 757 182 1509 110 735 158 1150 181
1589 12 230 13 236 55 225 24 -6 69 -12 100 -12z m973 -587 c0 -661 19 -1135
79 -1953 105 -1421 113 -1308 -88 -1296 -117 7 -108 -15 -173 416 -43 282 -44
334 -41 1850 2 858 3 1567 3 1575 0 8 50 15 110 15 l110 0 0 -607z m-420 -658
c0 -1132 -20 -2027 -56 -2475 l-14 -170 -80 0 c-109 0 -104 -47 -173 1670 -21
545 -11 2161 14 2202 6 10 78 18 160 18 l149 0 0 -1245z"/>
</g>
</svg>
