<?xml version="1.0" standalone="no"?>
<!DOCTYPE svg PUBLIC "-//W3C//DTD SVG 20010904//EN"
 "http://www.w3.org/TR/2001/REC-SVG-20010904/DTD/svg10.dtd">
<svg version="1.0" xmlns="http://www.w3.org/2000/svg"
 width="1024.000000pt" height="1024.000000pt" viewBox="0 0 1024.000000 1024.000000"
 preserveAspectRatio="xMidYMid meet">
<g transform="translate(0.000000,1024.000000) scale(0.050000,-0.050000)"
fill="#000000" stroke="none">
<path d="M12449 15272 c-29 -45 -29 -69 0 -285 128 -953 82 -1185 -343 -1717
-248 -311 -551 -719 -876 -1180 -553 -784 -844 -1154 -1463 -1860 -603 -688
-734 -1280 -427 -1926 258 -541 740 -866 1590 -1072 1144 -278 1239 -434 998
-1652 -16 -82 -39 -175 -51 -205 -47 -118 52 -245 155 -198 150 69 364 836
341 1223 -38 652 -258 880 -1053 1089 -192 51 -422 111 -510 135 -940 253
-1433 918 -1229 1656 73 264 175 410 841 1203 414 494 603 738 1019 1317 382
532 617 851 954 1293 453 592 514 997 292 1937 -29 121 -60 236 -70 255 -28
54 -129 45 -168 -13z"/>
<path d="M6840 13089 c-389 -83 -840 -329 -840 -457 0 -123 77 -126 304 -15
567 277 1013 312 1340 105 207 -131 285 -311 316 -722 73 -985 705 -1545 1398
-1238 252 111 193 334 -61 230 -541 -221 -995 232 -1058 1058 -63 826 -585
1213 -1399 1039z"/>
<path d="M7030 11092 c-181 -57 -230 -101 -230 -204 0 -83 74 -100 252 -58
262 62 432 -7 622 -251 176 -227 384 -153 263 95 -168 341 -567 526 -907 418z"/>
<path d="M8294 10032 c-63 -27 -165 -87 -225 -135 -458 -363 -738 -405 -928
-138 -118 166 -276 47 -182 -137 196 -384 701 -399 1168 -35 246 192 312 221
499 218 205 -4 277 57 212 178 -56 105 -343 131 -544 49z"/>
<path d="M13981 9305 c-64 -52 -57 -108 35 -305 227 -483 184 -971 -112 -1275
-130 -134 -336 -219 -720 -297 -112 -23 -167 -182 -87 -255 82 -74 461 -29
708 84 710 325 900 1240 403 1937 -49 69 -98 126 -107 126 -10 0 -30 5 -46 11
-16 6 -49 -6 -74 -26z"/>
<path d="M11425 8329 c-144 -39 -251 -96 -334 -180 -157 -156 -29 -325 158
-210 153 95 404 123 626 71 205 -48 365 -141 664 -385 246 -200 468 -2 256
228 -359 390 -939 592 -1370 476z"/>
</g>
</svg>
