<?xml version="1.0" standalone="no"?>
<!DOCTYPE svg PUBLIC "-//W3C//DTD SVG 20010904//EN"
 "http://www.w3.org/TR/2001/REC-SVG-20010904/DTD/svg10.dtd">
<svg version="1.0" xmlns="http://www.w3.org/2000/svg"
 width="1024.000000pt" height="1024.000000pt" viewBox="0 0 1024.000000 1024.000000"
 preserveAspectRatio="xMidYMid meet">
<g transform="translate(0.000000,1024.000000) scale(0.050000,-0.050000)"
fill="#000000" stroke="none">
<path d="M11381 16325 c-343 -316 -441 -1141 -209 -1758 l49 -132 -158 -242
c-87 -134 -184 -290 -216 -348 -77 -141 -79 -139 -93 130 -25 457 -161 827
-428 1161 -196 245 -268 233 -386 -63 -271 -676 -121 -1415 401 -1982 l78 -85
-65 -168 -66 -168 -389 -12 c-1027 -33 -1499 -268 -1499 -746 0 -172 49 -284
167 -381 91 -74 322 -191 377 -191 59 0 76 -69 75 -304 -2 -376 4 -363 -227
-500 -921 -547 -1352 -1505 -1352 -3006 0 -2216 1044 -3534 2710 -3421 1540
103 2453 1338 2456 3321 2 1636 -456 2719 -1339 3161 -213 107 -206 92 -207
472 0 232 0 233 51 245 434 109 642 510 470 907 -111 254 -462 424 -879 425
-149 1 -156 14 -91 179 l56 143 112 -16 c242 -35 719 -18 891 31 583 166 1165
673 894 780 -342 136 -999 113 -1373 -48 -193 -83 -194 -82 -99 75 323 538
357 572 503 519 609 -224 1339 -126 1694 228 260 261 -820 529 -1334 331 -83
-32 -67 3 54 114 88 80 127 102 205 113 602 85 1066 453 1257 995 92 265 50
314 -243 277 -618 -78 -1049 -410 -1209 -931 -37 -121 -63 -165 -142 -243
-115 -113 -119 -111 -93 43 71 430 -128 1150 -318 1150 -14 0 -52 -25 -85 -55z
m1839 -214 c0 -239 -507 -663 -905 -759 -168 -40 102 403 346 565 168 113 559
248 559 194z m-1707 -276 c73 -289 47 -640 -73 -960 -55 -147 -67 -145 -110
20 -86 325 -55 761 71 1006 55 109 69 101 112 -66z m-1182 -1165 c161 -324
216 -672 170 -1070 -31 -265 -40 -282 -104 -196 -328 438 -427 909 -294 1403
l43 160 48 -59 c26 -32 88 -139 137 -238z m2440 -10 c206 -53 213 -64 74 -126
-260 -117 -618 -157 -845 -96 -49 14 -124 33 -165 44 -105 27 -95 41 70 104
313 119 596 143 866 74z m-576 -1073 c86 -15 83 -23 -40 -115 -335 -248 -940
-390 -1263 -297 l-59 17 89 73 c347 284 809 401 1273 322z m-2005 -1202 c-36
-87 -97 -300 -171 -593 -43 -175 -83 -323 -88 -328 -20 -20 -653 39 -806 76
-703 168 -647 661 92 811 375 76 999 98 973 34z m737 -16 c498 -88 665 -568
269 -771 -143 -73 -941 -179 -989 -132 -18 18 206 873 244 936 13 20 283 1
476 -33z m-1213 -1128 c201 -1 189 29 135 -341 -90 -612 -88 -759 10 -800 119
-49 149 -2 171 260 15 180 63 563 92 733 l22 124 193 12 c106 6 257 17 335 23
l142 11 11 -311 c16 -426 17 -428 317 -576 801 -395 1222 -1399 1222 -2916 0
-1939 -901 -3121 -2380 -3120 -1359 1 -2182 1035 -2304 2893 -98 1482 379
2629 1304 3133 244 133 282 227 275 684 -1 110 -2 205 -1 211 1 6 67 4 147 -4
80 -8 219 -15 309 -16z"/>
</g>
</svg>
