<?xml version="1.0" standalone="no"?>
<!DOCTYPE svg PUBLIC "-//W3C//DTD SVG 20010904//EN"
 "http://www.w3.org/TR/2001/REC-SVG-20010904/DTD/svg10.dtd">
<svg version="1.0" xmlns="http://www.w3.org/2000/svg"
 width="1024.000000pt" height="1024.000000pt" viewBox="0 0 1024.000000 1024.000000"
 preserveAspectRatio="xMidYMid meet">
<g transform="translate(0.000000,1024.000000) scale(0.050000,-0.050000)"
fill="#000000" stroke="none">
<path d="M10110 15320 c-67 -75 -88 -582 -47 -1165 13 -184 18 -340 12 -347
-7 -6 -138 -20 -291 -29 -402 -25 -928 -111 -1223 -198 -85 -25 -58 -73 -230
401 -366 1008 -393 1056 -531 918 -69 -69 14 -384 313 -1188 49 -130 86 -239
83 -241 -3 -3 -64 -25 -136 -51 -358 -130 -865 -371 -1194 -570 -64 -38 -121
-70 -128 -70 -41 0 -450 574 -667 935 -146 244 -189 277 -281 217 -132 -87
123 -610 563 -1156 112 -138 127 -166 101 -185 -17 -11 -110 -77 -207 -145
-244 -171 -672 -514 -843 -675 l-141 -133 -176 135 c-98 75 -327 282 -509 461
-346 339 -393 369 -467 295 -55 -56 -38 -147 53 -267 122 -162 519 -555 710
-701 l164 -126 -168 -183 c-476 -515 -848 -1126 -780 -1283 87 -205 867 -875
1480 -1273 1517 -983 3112 -1503 4610 -1502 1870 2 3401 582 5340 2027 816
608 853 641 891 803 43 181 -243 597 -820 1192 -142 147 -175 190 -151 204
243 136 859 750 955 953 31 64 30 70 -8 122 -80 108 -100 96 -493 -289 -200
-197 -437 -413 -526 -480 l-161 -123 -139 121 c-267 232 -621 509 -873 683
l-254 175 171 204 c463 550 717 1055 576 1147 -91 60 -138 22 -296 -238 -189
-313 -356 -546 -552 -770 l-162 -184 -104 60 c-301 176 -920 468 -1227 579
l-123 44 149 433 c278 804 321 1044 194 1076 -124 31 -131 15 -591 -1299 -31
-88 -48 -113 -73 -105 -411 126 -1117 251 -1414 251 l-102 0 -25 315 c-13 173
-29 500 -36 725 -13 468 -29 540 -122 540 -32 0 -74 -18 -94 -40z m770 -1870
c1402 -216 2704 -844 3921 -1892 270 -233 909 -875 890 -894 -6 -5 -179 102
-386 239 -2047 1361 -3622 1894 -5355 1814 -1719 -80 -3282 -670 -4856 -1832
-185 -137 -341 -245 -345 -241 -20 20 284 370 560 647 1598 1600 3759 2438
5571 2159z m-215 -1069 c1290 -221 2060 -1076 2064 -2291 4 -1527 -1258 -2707
-2709 -2532 -1628 196 -2655 1728 -2166 3232 362 1115 1576 1802 2811 1591z
m-2027 -147 c-1615 -1124 -1600 -3399 30 -4483 221 -147 216 -149 -141 -60
-1305 326 -2907 1179 -3824 2036 -227 212 -294 290 -271 312 70 66 1026 755
1318 951 539 360 1095 653 1690 890 391 156 1299 424 1198 354z m3992 -233
c1012 -380 2600 -1310 3410 -1996 14 -12 -41 -55 -540 -433 -1357 -1027 -2229
-1493 -3428 -1833 -358 -102 -391 -101 -240 3 1394 972 1617 3068 446 4188
-85 81 -191 172 -236 201 -45 30 -82 61 -82 70 0 20 407 -101 670 -200z"/>
<path d="M10046 11159 c-934 -161 -1332 -1329 -676 -1987 755 -757 2070 -242
2070 812 0 514 -375 1071 -732 1088 -59 2 -164 23 -233 45 -158 51 -296 64
-429 42z m324 -290 c51 -17 108 -29 127 -25 19 3 57 -9 84 -26 27 -18 94 -55
150 -83 426 -216 549 -852 245 -1263 -550 -743 -1750 -274 -1631 638 61 473
629 893 1025 759z"/>
</g>
</svg>
