<?xml version="1.0" standalone="no"?>
<!DOCTYPE svg PUBLIC "-//W3C//DTD SVG 20010904//EN"
 "http://www.w3.org/TR/2001/REC-SVG-20010904/DTD/svg10.dtd">
<svg version="1.0" xmlns="http://www.w3.org/2000/svg"
 width="1024.000000pt" height="1024.000000pt" viewBox="0 0 1024.000000 1024.000000"
 preserveAspectRatio="xMidYMid meet">
<g transform="translate(0.000000,1024.000000) scale(0.050000,-0.050000)"
fill="#000000" stroke="none">
<path d="M9650 16400 c-1792 -158 -3453 -1227 -4423 -2847 -832 -1389 -1068
-2563 -825 -4113 50 -318 51 -320 109 -320 63 0 63 33 5 476 -125 956 -21
1945 287 2731 1229 3128 4110 4594 7144 3632 1225 -388 2376 -1280 3099 -2403
801 -1241 1155 -3023 871 -4390 -48 -233 -43 -266 41 -266 71 0 83 29 140 350
210 1183 -29 2689 -613 3860 -1071 2145 -3470 3498 -5835 3290z"/>
<path d="M11194 14032 c-115 -183 -271 -356 -484 -537 -660 -562 -766 -1156
-350 -1973 31 -63 32 -79 5 -180 -16 -62 -58 -287 -94 -502 l-64 -390 -71 142
c-68 135 -71 147 -52 250 26 143 -8 471 -76 718 -250 919 -852 1213 -2158
1053 -425 -52 -488 -93 -336 -222 337 -285 437 -430 518 -751 169 -671 604
-943 1652 -1037 280 -25 265 -9 398 -420 l62 -193 -21 -470 c-12 -258 -27
-600 -32 -760 -10 -282 14 -1200 41 -1615 l14 -205 -368 -1 c-202 0 -638 -13
-968 -29 -330 -16 -691 -29 -803 -30 l-202 0 -25 163 c-40 251 -2 706 75 914
24 64 133 -56 337 -368 144 -221 168 -243 236 -217 92 35 -41 642 -212 974
-278 535 -674 322 -885 -476 -95 -359 -83 -328 -97 -270 -6 28 -40 185 -75
350 -291 1378 -681 2119 -1147 2183 -403 55 -805 -469 -846 -1103 -17 -269 84
-325 172 -95 138 360 459 672 738 717 80 12 82 11 125 -75 228 -445 413 -1419
453 -2384 l12 -297 -48 7 c-45 7 -49 19 -72 206 -91 734 -317 1289 -693 1702
-85 94 -112 112 -147 101 -75 -24 -69 -73 44 -410 172 -511 243 -938 225
-1344 -14 -303 17 -278 -354 -278 l-317 0 -34 155 c-147 658 -554 1321 -980
1595 -42 27 -97 39 -183 39 -210 1 -272 -92 -317 -480 -20 -164 -47 -296 -80
-377 -86 -216 -47 -288 115 -216 153 68 287 251 358 486 29 98 42 98 119 -7
189 -259 325 -652 366 -1058 l12 -112 -610 -8 c-537 -7 -613 -12 -643 -41 -77
-77 -10 -96 340 -96 178 0 575 -14 883 -32 424 -24 739 -28 1300 -18 427 7
998 3 1351 -9 610 -22 885 -16 2038 41 358 17 619 17 1110 -1 1080 -41 4343
-62 5777 -37 838 14 854 16 854 106 0 95 -29 100 -598 103 l-532 3 6 97 c14
203 107 532 207 733 52 103 97 134 97 68 1 -156 322 -514 461 -514 117 0 121
54 22 323 -26 70 -49 201 -60 344 -85 1055 -1111 275 -1332 -1012 l-13 -75
-189 0 -189 0 0 128 c0 355 173 902 428 1350 38 67 45 97 30 125 -111 209
-735 -570 -927 -1158 -45 -137 -62 -132 -78 20 -58 548 -482 1412 -661 1343
-57 -22 -54 -85 15 -432 110 -549 165 -1236 106 -1332 -11 -17 -88 -24 -254
-24 l-239 0 0 155 c0 954 282 2380 496 2513 98 60 360 -346 502 -778 95 -291
185 -362 225 -178 115 529 -153 1405 -454 1480 -634 159 -1243 -1094 -1412
-2907 -17 -185 -32 -265 -49 -265 -90 0 -111 926 -29 1300 67 307 69 329 34
358 -192 159 -593 -814 -593 -1438 0 -259 32 -239 -390 -240 -308 0 -1334 37
-1346 49 -32 32 -65 833 -60 1471 l6 730 84 192 c92 211 204 411 272 487 l44
49 257 -23 c818 -72 1298 182 1647 871 148 293 161 311 360 508 270 267 270
290 6 367 -186 55 -784 77 -1098 40 -817 -95 -1242 -561 -1313 -1441 -13 -159
-20 -180 -116 -335 -109 -174 -137 -199 -123 -110 4 30 18 172 31 315 40 467
137 1092 199 1280 16 46 76 97 264 220 682 448 932 972 787 1650 -50 235 -216
847 -237 875 -43 56 -122 28 -180 -63z m143 -497 c166 -643 162 -859 -20
-1222 -92 -182 -677 -715 -677 -616 0 35 138 489 218 720 82 233 85 283 20
283 -59 0 -264 -477 -369 -856 -42 -151 -50 -146 -127 89 -185 567 -98 935
306 1293 89 79 252 235 362 347 110 112 205 204 212 205 7 1 40 -108 75 -243z
m-2367 -1094 c515 -134 825 -528 930 -1181 44 -279 31 -289 -125 -93 -335 422
-1008 904 -1063 761 -17 -46 -11 -52 203 -200 325 -225 938 -881 879 -941 -20
-20 -528 54 -730 106 -517 133 -723 327 -862 814 -83 288 -193 483 -360 642
-87 82 -88 82 173 110 129 14 244 29 255 33 58 23 554 -13 700 -51z m3703
-983 c206 -28 204 -26 92 -145 -135 -144 -201 -245 -345 -532 -288 -576 -865
-852 -1510 -723 l-80 16 242 240 c244 242 470 409 783 578 155 84 187 122 134
161 -102 75 -693 -268 -1052 -610 -108 -103 -197 -176 -197 -164 0 216 195
660 364 829 301 300 926 440 1569 350z m-6678 -1586 l65 -60 -101 -26 c-142
-36 -268 -115 -418 -260 -154 -150 -163 -148 -82 21 71 150 234 338 339 392
79 41 81 40 197 -67z m7829 -75 c-348 -464 -552 -1317 -578 -2412 l-11 -485
-190 0 -189 0 13 125 c155 1480 494 2510 930 2826 117 86 122 75 25 -54z m487
-127 c68 -139 129 -374 129 -496 0 -56 -10 -43 -81 97 -79 159 -210 320 -329
404 l-60 42 89 91 89 92 47 -45 c26 -24 78 -107 116 -185z m-7940 25 c301
-397 624 -1445 750 -2435 21 -170 39 -321 39 -335 0 -18 -47 -25 -170 -25
l-170 0 0 138 c0 857 -234 2130 -480 2609 -44 86 -80 161 -80 165 0 23 25 -4
111 -117z m-2172 -1194 c26 -16 24 -26 -12 -65 -53 -58 -87 -125 -166 -331
-55 -143 -102 -223 -100 -171 15 472 113 672 278 567z m3769 -63 c80 -63 288
-519 267 -583 -4 -11 -59 45 -122 123 -133 164 -294 299 -376 316 -73 14 -72
28 10 115 79 82 142 91 221 29z m-3305 -418 c190 -267 341 -592 436 -940 59
-214 65 -203 -114 -196 l-155 6 -14 180 c-34 434 -233 945 -461 1184 -52 55
-57 69 -35 96 35 42 170 -88 343 -330z m1414 185 c131 -260 274 -758 312
-1085 7 -60 18 -135 24 -165 l10 -55 -161 0 -161 0 9 55 c51 328 5 829 -124
1360 -21 86 14 44 91 -110z m10362 56 c48 -48 81 -162 81 -281 0 -49 10 -147
21 -217 37 -230 -43 -136 -161 189 -42 117 -98 234 -123 261 -79 84 99 131
182 48z m-2381 -230 c115 -276 229 -757 246 -1040 7 -116 -5 -123 -172 -102
l-102 13 -1 394 c-1 309 -11 449 -45 649 -62 361 -47 378 74 86z m-6329 88
c12 -12 3 -69 -23 -154 -102 -327 -127 -820 -55 -1049 12 -38 -296 -58 -317
-21 -42 72 148 1034 239 1211 30 58 103 64 156 13z m8421 -6 c29 -44 26 -54
-58 -179 -148 -220 -251 -541 -302 -939 l-12 -95 -148 0 -147 0 39 143 c96
345 279 738 459 983 109 148 124 156 169 87z m-3679 -88 c-45 -116 -31 -804
22 -1050 l12 -55 -133 0 -132 0 0 65 c1 147 43 530 71 644 48 190 134 431 155
431 10 0 12 -16 5 -35z m2517 -130 c-95 -262 -151 -532 -162 -770 l-11 -245
-140 0 -140 0 13 84 c21 127 105 360 215 596 157 336 303 553 225 335z"/>
<path d="M5825 6245 c-173 -60 685 -883 1325 -1271 1942 -1175 4332 -1207
6193 -83 834 504 1710 1369 1387 1369 -3 0 -149 -143 -323 -317 -1432 -1435
-3304 -2001 -5255 -1590 -1141 240 -2084 749 -2942 1588 -297 290 -337 321
-385 304z"/>
</g>
</svg>
