<?xml version="1.0" standalone="no"?>
<!DOCTYPE svg PUBLIC "-//W3C//DTD SVG 20010904//EN"
 "http://www.w3.org/TR/2001/REC-SVG-20010904/DTD/svg10.dtd">
<svg version="1.0" xmlns="http://www.w3.org/2000/svg"
 width="1024.000000pt" height="1024.000000pt" viewBox="0 0 1024.000000 1024.000000"
 preserveAspectRatio="xMidYMid meet">
<g transform="translate(0.000000,1024.000000) scale(0.050000,-0.050000)"
fill="#000000" stroke="none">
<path d="M7499 15378 c-555 -72 -1043 -359 -1521 -895 -210 -235 -197 -229
-682 -313 -674 -117 -990 -205 -1035 -289 -86 -159 -15 -196 649 -340 775
-168 868 -204 981 -374 208 -312 248 -519 269 -1367 9 -379 27 -766 39 -860
214 -1590 1265 -2844 2732 -3259 100 -28 185 -58 190 -66 5 -8 -97 -127 -226
-263 -230 -244 -236 -248 -340 -262 -58 -8 -161 -36 -230 -63 l-124 -49 -276
83 c-524 160 -799 310 -1472 803 -390 286 -426 303 -493 236 -121 -121 -89
-157 490 -567 242 -172 458 -325 480 -340 47 -34 73 -29 -530 -94 -849 -90
-915 -111 -884 -273 16 -85 82 -110 227 -87 373 59 1323 161 1505 161 170 0
753 -122 752 -157 0 -7 -14 -49 -29 -93 -61 -168 -16 -270 118 -270 76 0 131
56 131 134 0 59 41 146 68 146 92 -1 102 -18 104 -176 2 -240 92 -387 216
-356 109 27 141 119 81 234 -17 33 -29 90 -25 127 l6 67 460 -140 c542 -165
478 -126 428 -256 -71 -187 -40 -300 81 -300 78 0 114 36 160 160 60 161 67
168 132 146 54 -18 56 -22 51 -148 -9 -261 54 -386 191 -374 113 9 134 65 92
241 -53 219 -250 264 1719 -390 1384 -459 1361 -454 1405 -328 44 126 12 146
-559 337 -1737 581 -2030 685 -2030 721 0 95 -147 314 -249 370 -36 19 -19 55
240 523 l279 503 138 41 c373 112 809 326 1260 618 l178 116 162 -70 c986
-429 1115 -408 1003 164 -15 77 -24 143 -21 147 10 10 291 -182 510 -348 706
-534 1031 -623 1506 -413 225 100 461 337 450 453 -10 105 -305 273 -1266 720
-757 353 -1363 689 -1464 813 -13 16 -75 187 -137 379 -446 1371 -810 1901
-2079 3024 -220 195 -539 481 -710 637 -1296 1183 -2166 1597 -3101 1476z
m676 -308 c682 -131 1477 -640 2495 -1599 l120 -114 -70 12 c-692 119 -1225
-21 -1677 -439 -464 -430 -649 -1136 -555 -2112 96 -1000 -25 -1585 -383
-1847 -409 -299 -893 29 -1297 879 -275 579 -368 1064 -368 1927 0 683 -57
1027 -228 1374 -190 383 -298 449 -997 600 -140 30 -255 61 -255 68 0 8 190
47 423 88 505 88 562 113 755 333 648 738 1245 981 2037 830z m2439 -1961
c850 -176 1752 -1057 2227 -2176 277 -651 699 -2177 699 -2526 l0 -83 -95 36
c-52 20 -266 108 -475 195 -209 88 -672 270 -1030 405 -659 249 -1104 431
-1327 544 -1028 517 -1750 1380 -1806 2157 -66 918 843 1647 1807 1448z
m-1699 -2505 c520 -807 1192 -1248 2850 -1872 245 -93 471 -178 504 -191 l58
-23 -168 -110 c-1301 -845 -3036 -811 -4264 83 -121 88 -119 102 14 113 421
35 753 465 862 1115 35 211 34 956 -1 1046 -36 90 32 15 145 -161z m4946
-1295 c239 -137 654 -344 1029 -513 352 -159 985 -475 1009 -505 60 -72 -314
-236 -541 -237 -236 -2 -402 86 -978 515 -148 111 -357 255 -464 321 l-194
119 -41 171 c-23 93 -47 190 -54 215 -15 59 -28 64 234 -86z m-3881 -1783
c237 -5 496 -1 576 9 129 16 144 14 134 -14 -31 -80 -438 -815 -467 -842 -18
-18 -87 -48 -153 -67 -66 -20 -151 -54 -189 -76 l-69 -39 -349 106 c-191 59
-351 116 -354 127 -3 11 -12 54 -19 96 -6 42 -38 105 -70 140 l-58 64 264 265
c182 184 273 262 294 253 16 -7 224 -17 460 -22z"/>
<path d="M7137 14260 c-349 -185 -233 -678 160 -680 217 0 346 125 358 347 15
285 -266 466 -518 333z m274 -209 c99 -99 29 -271 -111 -271 -141 0 -206 160
-106 264 68 71 150 74 217 7z"/>
</g>
</svg>
