<?xml version="1.0" standalone="no"?>
<!DOCTYPE svg PUBLIC "-//W3C//DTD SVG 20010904//EN"
 "http://www.w3.org/TR/2001/REC-SVG-20010904/DTD/svg10.dtd">
<svg version="1.0" xmlns="http://www.w3.org/2000/svg"
 width="1024.000000pt" height="1024.000000pt" viewBox="0 0 1024.000000 1024.000000"
 preserveAspectRatio="xMidYMid meet">
<g transform="translate(0.000000,1024.000000) scale(0.050000,-0.050000)"
fill="#000000" stroke="none">
<path d="M12560 12571 c-914 -320 -1177 -1078 -591 -1698 l73 -78 -53 -77
c-109 -157 -394 -406 -615 -538 -419 -249 -711 -631 -798 -1045 -29 -140 -33
-141 -117 -10 -93 144 -320 378 -484 500 -149 111 -248 251 -315 444 l-38 113
74 -16 c688 -146 850 635 304 1468 -187 284 -482 251 -893 -99 -597 -510 -509
-1273 148 -1283 114 -2 145 -8 146 -32 0 -16 21 -91 46 -165 52 -154 56 -151
-113 -87 -183 69 -438 129 -677 161 -376 49 -551 140 -843 439 -175 180 -177
189 -49 222 384 97 537 546 331 966 -236 478 -1121 953 -1429 766 -273 -167
-510 -925 -427 -1364 99 -523 606 -787 1061 -553 l145 75 30 -43 c61 -86 211
-246 335 -355 l128 -112 -275 -15 c-151 -8 -450 -28 -666 -45 -394 -30 -909
-36 -1168 -13 l-140 13 -14 103 c-75 524 -360 756 -926 754 -818 -1 -1159
-253 -939 -690 450 -892 1318 -1122 1768 -469 l59 86 526 -8 c289 -5 614 -1
721 8 206 18 227 12 142 -44 -28 -19 -119 -92 -200 -163 l-148 -130 -95 37
c-446 172 -917 -172 -940 -686 l-8 -182 -451 -13 c-249 -7 -677 -14 -953 -15
-823 -4 -972 -26 -867 -132 32 -32 130 -35 1169 -45 l1135 -11 54 -147 c156
-423 374 -502 794 -287 231 118 403 228 555 356 l102 86 3272 19 c3193 19
3275 18 3395 -19 155 -48 290 -49 379 -1 65 35 161 38 1456 51 1486 15 1438
12 1457 85 34 138 90 133 -1399 124 l-1336 -9 11 41 c216 752 -171 1309 -756
1091 l-108 -41 -131 136 -132 135 394 12 c403 13 506 26 758 101 205 60 650 1
629 -84 -133 -549 260 -890 887 -770 425 82 532 269 360 627 -223 466 -771
665 -1074 390 -33 -30 -45 -29 -156 4 -148 45 -149 41 23 150 78 50 224 167
325 262 l182 172 160 11 c533 39 837 367 839 905 2 412 -163 535 -562 420
-490 -141 -731 -552 -628 -1072 l24 -124 -126 -128 c-213 -215 -671 -498 -872
-538 l-58 -12 70 147 c62 132 79 152 167 194 270 130 406 366 406 703 0 717
-572 850 -876 204 -121 -255 -88 -598 78 -816 97 -126 16 -351 -179 -497 -76
-56 -676 -57 -1193 -3 -246 26 -423 34 -596 26 -136 -6 -244 -5 -240 3 3 8 56
79 116 158 l110 143 150 1 c813 8 1215 701 877 1515 -153 368 -357 464 -717
337z m386 -192 c125 -98 243 -450 241 -719 -2 -363 -175 -592 -529 -702 -121
-38 -288 -52 -274 -23 222 433 334 779 272 841 -89 89 -146 33 -231 -223 -65
-198 -240 -573 -267 -573 -8 0 -61 61 -117 135 -368 487 -134 1004 563 1247
197 68 273 72 342 17z m-5951 -48 c257 -68 573 -259 760 -459 384 -410 261
-912 -224 -912 -29 0 -160 233 -261 465 -77 177 -111 210 -190 185 -97 -31
-58 -188 140 -566 l98 -185 -76 -50 c-272 -180 -611 -78 -745 223 -118 266
-69 700 124 1086 121 240 170 268 374 213z m9381 -196 c63 -76 40 -407 -40
-572 -79 -165 -273 -306 -465 -337 -88 -14 -88 -4 -4 101 109 134 121 168 84
224 -55 85 -119 65 -224 -71 -122 -157 -134 -153 -123 35 19 319 167 508 476
607 130 42 267 48 296 13z m-1648 -276 c218 -260 101 -737 -217 -882 -177 -81
-296 411 -160 661 127 233 287 327 377 221z m-4989 -238 c80 -43 312 -488 370
-711 101 -388 -146 -672 -439 -504 l-80 46 5 139 c2 77 14 186 26 243 27 130
3 186 -79 186 -97 0 -134 -92 -155 -385 -16 -221 -113 -261 -309 -129 -344
232 -131 744 435 1049 173 93 174 93 226 66z m-4600 -916 c159 -81 403 -490
334 -559 -18 -18 -341 51 -559 120 l-195 62 -44 -44 c-112 -113 42 -203 515
-301 235 -49 233 -47 151 -132 -360 -371 -853 -243 -1223 316 -237 361 -233
423 36 505 415 126 779 139 985 33z m10607 -409 c260 -78 542 -559 378 -644
-438 -227 -947 -7 -875 378 17 90 14 91 223 -50 196 -132 231 -141 277 -76 59
85 11 150 -215 291 -114 71 -116 73 -70 98 59 33 179 34 282 3z m-2912 -147
c235 -104 591 -409 479 -409 -57 0 -185 -117 -241 -220 -116 -214 -65 -471
134 -665 l97 -95 -688 0 c-379 0 -960 -6 -1292 -13 l-603 -13 0 79 c0 159 220
383 441 450 76 23 78 22 189 -80 369 -337 899 -334 1241 7 236 235 223 452
-36 611 -461 284 -956 218 -1220 -162 -68 -96 -94 -116 -224 -169 -82 -33
-155 -67 -163 -75 -50 -50 -68 -9 -26 60 314 527 873 788 1608 751 151 -7 226
-21 304 -57z m-4283 -214 c6 -5 -22 -44 -62 -87 -184 -201 -282 -557 -193
-700 60 -94 153 -128 347 -128 491 1 818 195 906 536 l22 87 159 -104 c271
-176 690 -647 690 -775 0 -18 -3072 -48 -3105 -30 -8 5 -6 26 6 47 121 226
-27 569 -288 669 -51 19 -93 43 -93 52 0 70 546 400 725 438 84 18 868 14 886
-5z m617 -131 c218 -74 246 -156 115 -337 -176 -242 -861 -353 -817 -131 86
427 335 593 702 468z m2957 -53 c268 -57 457 -189 415 -290 -107 -259 -546
-397 -833 -262 -254 118 -263 153 -46 172 283 25 317 220 36 207 -135 -6 -146
17 -42 90 145 102 273 125 470 83z m1963 -86 c196 -137 242 -482 109 -816 -83
-207 -176 -209 -587 -9 -399 194 -526 521 -264 681 124 76 146 61 256 -170
101 -211 136 -247 217 -221 88 28 71 132 -64 396 -87 169 -87 171 9 195 107
27 238 4 324 -56z m-7555 -271 c9 -9 5 -31 -8 -50 -166 -236 -268 -505 -215
-564 79 -87 143 -51 207 116 59 156 219 404 261 404 377 0 487 -376 195 -668
-168 -168 -690 -472 -810 -472 -303 0 -434 800 -179 1090 131 148 458 234 549
144z"/>
</g>
</svg>
