<?xml version="1.0" standalone="no"?>
<!DOCTYPE svg PUBLIC "-//W3C//DTD SVG 20010904//EN"
 "http://www.w3.org/TR/2001/REC-SVG-20010904/DTD/svg10.dtd">
<svg version="1.0" xmlns="http://www.w3.org/2000/svg"
 width="1024.000000pt" height="1024.000000pt" viewBox="0 0 1024.000000 1024.000000"
 preserveAspectRatio="xMidYMid meet">
<g transform="translate(0.000000,1024.000000) scale(0.050000,-0.050000)"
fill="#000000" stroke="none">
<path d="M12873 15749 c-1551 -211 -2381 -1096 -2259 -2406 18 -187 18 -188
-41 -280 -32 -51 -94 -163 -137 -248 -75 -150 -116 -181 -116 -89 0 24 -30
130 -66 235 -47 135 -62 207 -52 245 277 1035 -393 1938 -1612 2173 -458 89
-460 87 -460 -352 0 -1168 564 -1863 1599 -1972 l237 -25 47 -139 c109 -322
141 -648 106 -1069 -14 -171 -27 -314 -29 -317 -2 -3 -444 144 -982 326 -4003
1359 -4320 1458 -4408 1379 -133 -120 -43 -188 421 -318 305 -86 1917 -613
2084 -682 33 -13 35 -100 35 -1427 0 -2005 31 -3500 74 -3547 39 -44 152 -47
186 -6 20 24 20 397 0 1865 -25 1816 -23 2969 4 2996 8 8 269 -73 580 -180
l566 -193 0 -1414 c0 -1417 9 -1760 98 -3668 48 -1035 41 -996 173 -996 128 0
126 -40 70 1162 -27 599 -61 1354 -75 1678 -32 747 -35 3089 -4 3120 15 15
182 -33 597 -172 l576 -194 -14 -331 c-39 -884 -15 -2284 79 -4593 69 -1682
60 -1610 190 -1610 142 0 143 -203 -5 3150 -25 574 -34 3258 -10 3281 8 8 280
-73 606 -181 l591 -196 -11 -182 c-42 -724 -29 -1502 59 -3552 69 -1607 66
-1563 139 -1598 51 -24 66 -24 110 1 l51 29 -4 339 c-3 186 -23 740 -45 1229
-78 1694 -104 3036 -68 3491 l12 162 585 -191 584 -191 12 -1261 c14 -1452 49
-2764 76 -2815 29 -53 110 -65 171 -25 l53 35 -14 703 c-8 386 -22 1031 -32
1432 -23 913 -25 1840 -4 1840 30 0 1372 -437 1931 -629 618 -212 597 -207
653 -151 146 146 107 164 -1340 640 -3240 1066 -4020 1325 -4053 1350 -112 81
41 813 263 1263 l150 302 375 10 c1322 35 2117 943 2149 2455 8 366 1 371
-451 309z m207 -344 c-3 -912 -516 -1802 -1183 -2053 -269 -101 -897 -178
-897 -110 0 91 571 707 975 1052 248 211 268 242 232 336 -22 57 -105 76 -165
37 -175 -113 -664 -567 -893 -828 -98 -113 -204 -233 -235 -267 l-57 -62 10
230 c38 938 761 1571 2003 1757 222 33 210 39 210 -92z m-4507 -276 c865 -179
1395 -690 1420 -1369 l8 -230 -45 59 c-558 714 -779 896 -873 717 -38 -72 -32
-82 204 -323 213 -220 390 -439 491 -608 l45 -75 -72 0 c-768 0 -1319 657
-1383 1648 -16 245 -33 230 205 181z"/>
</g>
</svg>
