<?xml version="1.0" standalone="no"?>
<!DOCTYPE svg PUBLIC "-//W3C//DTD SVG 20010904//EN"
 "http://www.w3.org/TR/2001/REC-SVG-20010904/DTD/svg10.dtd">
<svg version="1.0" xmlns="http://www.w3.org/2000/svg"
 width="1024.000000pt" height="1024.000000pt" viewBox="0 0 1024.000000 1024.000000"
 preserveAspectRatio="xMidYMid meet">
<g transform="translate(0.000000,1024.000000) scale(0.050000,-0.050000)"
fill="#000000" stroke="none">
<path d="M13850 15742 c-386 -221 -586 -895 -434 -1462 38 -145 38 -152 4
-220 -20 -38 -46 -106 -59 -150 l-24 -80 -114 2 -114 1 -180 181 c-298 300
-729 463 -729 276 0 -51 -10 -46 245 -112 273 -70 608 -377 527 -483 -34 -45
-35 -45 -137 24 -265 179 -809 224 -831 69 -12 -81 43 -98 198 -60 175 42 317
21 541 -82 l154 -70 -11 -145 c-41 -540 656 -895 833 -424 16 43 30 54 56 43
817 -330 2482 931 2264 1716 -116 417 -895 466 -1654 104 -124 -59 -225 -105
-225 -101 0 4 31 73 69 154 275 583 51 1066 -379 819z m289 -151 c135 -144 16
-564 -276 -971 -129 -181 -314 -376 -335 -355 -36 37 -15 627 29 781 120 428
424 713 582 545z m1392 -673 c406 -73 462 -377 147 -804 -85 -115 -98 -116
-98 -8 0 247 -219 652 -408 753 -126 67 105 106 359 59z m-568 -116 c279 -177
440 -476 445 -827 l2 -158 -90 -79 c-547 -478 -1501 -733 -1579 -422 -38 151
-91 255 -182 352 l-84 91 35 86 c153 383 589 740 1170 957 186 70 174 70 283
0z m-1562 -1233 c241 -235 205 -665 -50 -601 -140 35 -311 296 -311 473 0 218
198 288 361 128z"/>
<path d="M8550 14474 c-368 -95 -629 -389 -732 -824 -96 -407 3 -1352 196
-1865 8 -19 -71 45 -175 142 -1102 1036 -2160 1179 -2558 345 -59 -124 -73
-176 -171 -632 -58 -270 -127 -418 -282 -610 -748 -924 -448 -1750 745 -2052
241 -61 721 -138 859 -138 46 0 111 -6 146 -13 l62 -12 -95 -50 c-1175 -612
-1632 -1510 -1102 -2162 107 -132 259 -248 535 -408 270 -157 413 -300 593
-592 248 -405 462 -587 766 -655 717 -160 1403 463 1873 1702 42 110 82 207
89 215 7 8 28 -99 47 -237 272 -1994 1290 -2711 2378 -1674 362 344 426 385
826 526 1368 479 1336 1535 -81 2662 l-160 128 510 0 c817 0 1222 128 1541
486 344 386 347 790 9 1434 -166 317 -186 395 -209 800 -31 549 -133 809 -405
1027 -550 441 -1382 267 -2505 -524 -132 -93 -243 -166 -246 -163 -4 3 31 80
76 170 740 1471 604 2668 -319 2820 -162 27 -334 18 -640 -33 -284 -48 -433
-31 -798 93 -344 116 -576 144 -773 94z m753 -277 c363 -124 549 -137 1003
-69 602 91 932 -112 1044 -641 145 -681 -303 -1922 -1009 -2798 -142 -175
-168 -242 -111 -289 56 -47 125 -1 298 198 781 897 1983 1557 2661 1461 532
-76 790 -453 791 -1158 1 -279 40 -413 231 -797 258 -519 288 -737 141 -1034
-250 -505 -1061 -726 -2131 -580 l-269 36 -221 130 c-635 372 -1220 505 -1156
262 35 -135 544 -384 1042 -511 303 -77 391 -128 793 -458 815 -671 1099
-1245 860 -1740 -129 -266 -319 -394 -860 -579 -327 -112 -451 -193 -780 -509
-567 -546 -977 -603 -1420 -198 -501 458 -855 1867 -692 2757 87 479 80 640
-29 640 -75 0 -110 -114 -161 -516 -126 -997 -698 -2148 -1249 -2515 -529
-351 -964 -216 -1360 424 -197 316 -357 475 -666 657 -996 588 -840 1374 424
2139 418 252 519 292 799 313 597 45 1124 242 1073 400 -44 138 -628 68 -1131
-136 l-188 -76 -310 3 c-1829 18 -2596 826 -1772 1867 188 237 263 387 323
646 26 112 65 285 88 383 239 1052 1280 944 2494 -259 l282 -280 153 -301
c267 -526 520 -784 581 -591 31 96 -152 451 -397 771 -342 444 -605 1707 -483
2312 138 683 568 891 1314 636z"/>
<path d="M9153 10292 c-702 -294 -756 -1237 -90 -1592 649 -346 1357 86 1357
827 0 440 -299 795 -670 794 -66 0 -201 4 -300 10 -159 9 -193 4 -297 -39z
m355 -109 c6 -10 77 -22 157 -27 550 -36 764 -740 358 -1181 -280 -303 -790
-275 -1083 58 -341 388 -117 1007 411 1135 149 36 144 35 157 15z"/>
</g>
</svg>
