<?xml version="1.0" standalone="no"?>
<!DOCTYPE svg PUBLIC "-//W3C//DTD SVG 20010904//EN"
 "http://www.w3.org/TR/2001/REC-SVG-20010904/DTD/svg10.dtd">
<svg version="1.0" xmlns="http://www.w3.org/2000/svg"
 width="1024.000000pt" height="1024.000000pt" viewBox="0 0 1024.000000 1024.000000"
 preserveAspectRatio="xMidYMid meet">
<g transform="translate(0.000000,1024.000000) scale(0.050000,-0.050000)"
fill="#000000" stroke="none">
<path d="M8105 15821 c-95 -59 -145 -152 -145 -271 0 -278 339 -430 530 -239
82 82 89 83 230 17 377 -175 640 -581 746 -1154 l30 -156 -133 -67 c-537 -270
-926 -798 -937 -1271 l-4 -210 -116 -77 c-1211 -809 -1975 -2917 -1645 -4540
293 -1438 1408 -2774 2639 -3162 331 -105 416 -90 434 72 l11 91 122 -40 c167
-54 570 -59 736 -9 152 47 157 46 157 -36 0 -214 208 -190 795 91 1826 874
2700 2879 2212 5080 -235 1061 -769 1902 -1532 2413 l-195 131 0 144 c0 534
-424 1133 -961 1356 -111 46 -109 20 -27 356 109 439 388 837 689 979 159 75
168 75 242 1 206 -206 537 -61 537 236 0 108 -55 204 -118 204 -19 0 -56 23
-82 50 -127 135 -420 -8 -420 -205 0 -28 -23 -46 -85 -64 -453 -136 -834 -635
-953 -1251 -45 -230 -16 -208 -216 -167 -233 48 -562 47 -796 -1 -215 -44
-180 -70 -231 169 -141 662 -487 1101 -1004 1276 -19 6 -35 30 -35 53 0 51
-85 140 -134 140 -20 0 -45 20 -56 45 -28 64 -193 73 -285 16z m245 -141 c68
-1 79 -172 15 -245 -94 -107 -309 77 -220 189 39 48 101 77 145 66 22 -5 49
-10 60 -10z m3932 -6 c51 -39 81 -112 67 -160 -52 -171 -277 -142 -277 36 0
119 122 191 210 124z m-1850 -1694 c789 -99 1443 -711 1448 -1355 0 -56 11
-58 -185 23 -1063 437 -2123 408 -3122 -84 -25 -13 8 172 58 322 235 700 1040
1189 1801 1094z m-292 -1287 c0 -86 -141 -2372 -180 -2923 -132 -1865 -175
-2385 -302 -3680 -33 -341 -67 -766 -76 -945 -8 -178 -20 -330 -27 -336 -44
-44 -642 219 -935 412 -1438 945 -2137 2734 -1741 4459 449 1958 1560 3038
3186 3097 l75 3 0 -87z m454 57 c1866 -156 3115 -1759 3115 -4000 1 -1685
-753 -2978 -2154 -3692 -211 -107 -567 -258 -610 -258 -9 0 -28 155 -41 345
-14 190 -74 831 -134 1425 -158 1570 -289 3339 -442 5986 l-13 227 68 -11 c37
-5 132 -16 211 -22z m-263 -2960 c109 -1621 153 -2162 269 -3270 62 -596 114
-1166 124 -1370 l6 -120 -110 -38 c-215 -75 -668 -59 -840 29 -38 19 -24 314
51 1047 136 1340 207 2227 328 4102 23 341 47 697 55 790 l14 170 16 -150 c9
-82 48 -618 87 -1190z"/>
<path d="M8432 11256 c-512 -142 -315 -933 204 -816 306 68 461 551 213 664
-27 12 -49 39 -49 59 0 86 -205 139 -368 93z m256 -198 c108 -85 135 -193 79
-312 -105 -221 -428 -174 -460 66 -29 210 222 371 381 246z"/>
<path d="M8880 9260 c-531 -95 -428 -880 110 -836 387 32 516 559 187 762
-110 68 -201 91 -297 74z m174 -202 c139 -67 180 -190 113 -332 -85 -178 -325
-188 -429 -18 -131 216 90 460 316 350z"/>
<path d="M8233 7211 c-221 -79 -333 -347 -236 -561 183 -400 757 -304 799 133
29 301 -273 531 -563 428z m283 -192 c140 -84 151 -279 22 -388 -116 -97 -221
-92 -331 18 -205 205 60 523 309 370z"/>
<path d="M11730 11227 c-382 -202 -226 -787 210 -787 303 0 499 286 391 571
-74 192 -414 314 -601 216z m322 -165 c159 -72 186 -259 56 -389 -193 -193
-537 81 -384 307 83 122 183 148 328 82z"/>
<path d="M11319 9185 c-392 -205 -165 -817 281 -757 301 41 465 443 277 681
-111 141 -367 176 -558 76z m350 -128 c152 -69 153 -296 3 -421 -135 -111
-332 -15 -382 187 -43 170 196 317 379 234z"/>
<path d="M12014 7218 c-498 -117 -420 -815 92 -817 186 -1 295 69 372 239 90
199 19 436 -142 471 -35 8 -65 31 -76 58 -25 68 -102 83 -246 49z m217 -194
c155 -131 143 -355 -23 -434 -218 -103 -451 155 -320 355 69 105 260 149 343
79z"/>
</g>
</svg>
