<?xml version="1.0" standalone="no"?>
<!DOCTYPE svg PUBLIC "-//W3C//DTD SVG 20010904//EN"
 "http://www.w3.org/TR/2001/REC-SVG-20010904/DTD/svg10.dtd">
<svg version="1.0" xmlns="http://www.w3.org/2000/svg"
 width="1024.000000pt" height="1024.000000pt" viewBox="0 0 1024.000000 1024.000000"
 preserveAspectRatio="xMidYMid meet">
<g transform="translate(0.000000,1024.000000) scale(0.050000,-0.050000)"
fill="#000000" stroke="none">
<path d="M10190 15215 c-253 -289 -605 -667 -991 -1064 -591 -609 -546 -536
-669 -1101 -152 -704 -671 -3057 -681 -3092 -10 -32 -676 -78 -705 -49 -6 6 8
46 32 89 102 181 50 373 -140 523 -58 45 -139 134 -180 196 -258 398 -404 455
-779 306 -84 -34 -201 -67 -260 -74 -273 -32 -372 -116 -540 -457 -136 -275
-148 -364 -70 -517 l46 -93 -121 -10 c-67 -6 -319 -18 -560 -26 -382 -14 -441
-20 -459 -50 -54 -86 -68 -86 1853 -90 l1824 -5 -6 -45 c-3 -25 -73 -347 -154
-716 -261 -1184 -265 -1219 -154 -1392 398 -614 2133 -2488 2304 -2488 71 0
246 145 650 540 231 226 605 573 830 772 226 199 465 420 532 492 l122 131 64
257 c67 274 210 789 512 1848 l185 650 443 5 c358 5 451 0 487 -23 25 -16 171
-62 325 -104 436 -116 880 -87 1220 79 l140 69 510 14 c533 15 580 23 580 96
-1 92 -4 93 -549 99 l-518 5 -38 115 c-50 151 -162 270 -372 394 -586 348
-984 230 -1266 -374 l-77 -165 -410 0 c-226 0 -410 8 -410 18 0 10 80 336 179
725 178 705 307 1263 332 1441 13 92 7 107 -186 470 -109 207 -306 581 -436
831 -324 620 -342 643 -747 929 -373 265 -492 354 -822 616 -333 264 -589 430
-665 430 -14 0 -107 -92 -205 -205z m221 -210 c192 -676 438 -1442 706 -2195
66 -187 184 -519 262 -738 78 -219 138 -402 133 -407 -5 -4 -259 180 -565 410
-638 478 -819 607 -1532 1083 -283 190 -515 352 -515 362 0 9 133 155 295 323
531 552 712 746 944 1013 269 310 233 290 272 149z m609 -247 c125 -100 392
-299 595 -443 551 -394 531 -366 1144 -1569 l257 -505 -293 -178 c-349 -212
-915 -543 -930 -543 -5 0 -61 155 -124 345 -63 190 -180 525 -260 745 -336
924 -789 2317 -789 2424 0 34 76 -18 400 -276z m-1670 -1799 c527 -359 863
-600 1617 -1158 329 -243 610 -449 626 -457 35 -20 -289 -1355 -338 -1394 -39
-32 -3197 -27 -3187 4 7 21 97 437 201 927 104 489 239 1114 299 1389 60 275
133 617 162 760 69 345 59 323 135 265 36 -27 254 -178 485 -336z m3580 -1369
c-50 -209 -164 -661 -253 -1004 l-163 -624 -502 -6 c-276 -3 -508 -1 -515 4
-8 6 32 181 87 390 55 209 129 506 165 660 l64 280 155 90 c84 50 354 209 598
353 244 145 446 258 449 250 3 -7 -36 -184 -85 -393z m-6448 -735 c37 -25 122
-125 187 -223 75 -111 158 -206 224 -256 181 -137 178 -266 -10 -403 l-93 -67
-591 -12 c-666 -13 -690 -9 -795 146 -65 96 -52 167 79 409 126 236 180 280
361 300 69 8 203 44 296 82 202 80 252 84 342 24z m8201 -473 c259 -128 369
-234 418 -405 50 -176 -674 -270 -1136 -147 -257 69 -249 56 -146 240 231 415
476 503 864 312z m-2239 -632 c5 -6 -60 -260 -147 -565 -322 -1140 -438 -1559
-472 -1700 -44 -181 -34 -185 -165 69 -60 117 -202 380 -315 584 -113 204
-205 385 -205 402 0 36 183 823 242 1044 l42 155 213 6 c419 13 797 15 807 5z
m-1244 -35 c0 -14 -9 -57 -21 -95 -11 -39 -73 -293 -138 -565 l-117 -495 -335
-355 c-185 -195 -507 -529 -716 -741 l-381 -386 -171 55 c-94 30 -373 135
-621 233 -247 98 -593 226 -767 285 -174 58 -321 110 -325 115 -10 10 39 253
248 1224 l155 720 939 10 c2003 22 2250 22 2250 -5z m-55 -1650 c290 -532 535
-998 535 -1019 0 -25 -252 -258 -720 -665 -181 -159 -503 -459 -714 -668 -250
-247 -388 -370 -394 -352 -17 52 -50 283 -112 779 -34 270 -74 553 -89 630
l-27 140 493 507 c271 279 577 601 680 715 102 115 189 208 192 208 4 0 74
-124 156 -275z m-3134 -655 c106 -38 396 -150 646 -248 249 -99 524 -200 610
-225 86 -25 164 -60 172 -77 20 -37 187 -1381 174 -1394 -4 -4 -222 212 -485
479 -534 542 -728 762 -1304 1477 -59 74 -47 73 187 -12z"/>
<path d="M13345 9099 c-25 -10 -53 -37 -61 -59 -9 -23 -60 -75 -114 -116 -192
-145 -286 -418 -182 -530 121 -130 669 -129 852 3 326 234 -113 856 -495 702z
m275 -256 c153 -125 178 -258 55 -302 -160 -58 -535 -50 -535 10 0 30 100 241
153 321 42 64 231 48 327 -29z"/>
</g>
</svg>
