<?xml version="1.0" standalone="no"?>
<!DOCTYPE svg PUBLIC "-//W3C//DTD SVG 20010904//EN"
 "http://www.w3.org/TR/2001/REC-SVG-20010904/DTD/svg10.dtd">
<svg version="1.0" xmlns="http://www.w3.org/2000/svg"
 width="1024.000000pt" height="1024.000000pt" viewBox="0 0 1024.000000 1024.000000"
 preserveAspectRatio="xMidYMid meet">
<g transform="translate(0.000000,1024.000000) scale(0.050000,-0.050000)"
fill="#000000" stroke="none">
<path d="M14130 16129 c-11 -4 -267 -44 -570 -89 -918 -137 -1234 -213 -1613
-390 -1032 -481 -1458 -1413 -1185 -2593 l40 -173 -61 -123 c-144 -284 -297
-744 -379 -1138 -47 -224 -53 -233 -71 -109 -68 467 -191 926 -347 1290 l-98
226 19 160 c10 88 13 282 7 430 -61 1494 -922 2294 -2613 2424 -383 29 -1010
2 -1040 -45 -35 -55 -19 -123 46 -199 165 -193 274 -439 458 -1026 428 -1369
1111 -1854 2575 -1830 l361 6 88 -190 c206 -440 323 -959 426 -1880 33 -297
52 -1241 26 -1268 -6 -6 -366 -20 -800 -32 -434 -11 -991 -31 -1239 -44 -247
-13 -922 -28 -1500 -35 l-1050 -11 0 -50 c0 -49 4 -50 194 -64 448 -32 1405
-51 1736 -35 193 10 809 26 1370 37 561 11 1076 26 1144 33 l124 12 -12 -77
c-95 -627 -340 -981 -933 -1354 -171 -107 -172 -107 -302 -97 -206 17 -374
-76 -483 -266 -21 -36 -49 -39 -380 -40 -431 -2 -666 -63 -795 -205 -101 -113
24 -151 210 -64 170 79 294 100 595 100 l252 -1 -193 -184 c-473 -453 -923
-1225 -772 -1324 79 -51 106 -23 242 256 181 373 343 604 607 870 l225 227 65
-85 c335 -436 1039 31 754 499 -22 37 -33 74 -24 82 9 8 102 71 206 141 105
69 246 180 315 246 69 66 125 114 125 108 0 -6 -18 -116 -40 -245 -57 -335
-52 -847 12 -1101 11 -44 9 -45 -70 -25 -248 63 -542 -174 -542 -436 0 -210
186 -448 349 -448 43 0 39 -27 -11 -72 -174 -156 -342 -470 -346 -645 l-2
-113 68 0 c68 0 69 2 113 144 80 263 618 935 658 823 6 -15 43 -117 83 -227
56 -151 77 -245 87 -385 11 -148 22 -197 57 -240 86 -106 129 -277 167 -660
25 -253 37 -285 107 -285 101 0 117 240 42 625 -25 132 -25 135 16 135 174 1
353 144 389 313 72 339 -250 604 -550 451 l-82 -42 -121 354 c-140 410 -176
527 -194 624 -7 39 -18 87 -24 107 -6 24 36 -1 117 -70 70 -60 231 -173 358
-251 274 -170 425 -320 527 -522 77 -154 130 -183 201 -112 80 80 -137 436
-379 624 -55 42 -204 141 -330 219 -237 146 -437 328 -512 465 -88 162 -11
835 155 1357 l21 67 61 -107 c127 -225 292 -382 569 -541 l143 -82 -85 -83
c-296 -287 -10 -763 402 -670 182 41 279 131 329 305 l27 96 135 -86 c181
-115 193 -156 147 -486 -58 -424 14 -790 156 -790 94 0 104 47 45 221 -66 197
-57 701 14 773 39 38 441 -498 546 -728 71 -157 155 -197 214 -103 78 125
-354 758 -715 1047 -162 130 -176 150 -107 150 25 0 131 24 235 53 190 53 364
67 503 40 134 -26 190 107 69 164 -105 50 -395 39 -620 -24 -267 -75 -442 -89
-540 -43 l-74 36 49 52 c307 329 -75 835 -478 632 -115 -57 -188 -154 -203
-269 -14 -100 -5 -101 -186 16 -430 277 -569 559 -490 993 16 88 29 163 29
167 2 14 1362 -13 1858 -36 363 -17 618 -18 1000 -1 282 13 756 28 1053 34
570 11 590 15 590 108 0 116 -21 116 -1555 56 -527 -21 -752 -21 -1230 0 -322
14 -834 31 -1138 36 l-553 11 9 442 c22 1121 155 1846 460 2513 l68 151 409
-8 c853 -16 1391 177 1887 679 387 391 550 739 813 1738 62 237 144 527 182
645 93 294 60 406 -102 344z m-70 -222 c0 -7 -31 -117 -69 -245 -37 -128 -114
-406 -171 -619 -406 -1531 -1016 -2089 -2315 -2117 -531 -12 -505 -43 -269
316 391 593 979 1196 1517 1553 113 75 140 115 105 158 -38 45 -68 33 -270
-104 -619 -420 -1146 -948 -1538 -1543 l-126 -190 -27 147 c-44 240 -33 770
20 967 237 878 941 1357 2293 1559 187 28 448 68 580 89 132 21 247 39 255 40
8 1 15 -4 15 -11z m-6697 -67 c1504 -149 2267 -878 2310 -2210 l11 -320 -111
161 c-398 575 -1050 1163 -1600 1442 -220 112 -260 10 -49 -125 587 -375 1144
-913 1504 -1454 137 -206 140 -188 -33 -199 -565 -35 -1281 111 -1607 329
-414 277 -630 622 -905 1446 -158 476 -264 739 -342 849 -51 72 -51 76 4 87
91 17 617 13 818 -6z m4153 -7501 c127 -77 150 -228 49 -328 -143 -144 -435
50 -357 236 54 131 182 169 308 92z m-196 -575 c204 -99 120 -384 -113 -384
-284 0 -364 313 -107 418 58 23 121 14 220 -34z m-2278 -122 c148 -148 81
-387 -123 -442 -200 -54 -386 172 -292 354 95 183 281 223 415 88z m774 -969
c219 -121 125 -494 -124 -493 -271 1 -375 341 -146 481 73 44 201 50 270 12z
m956 -1021 c78 -78 89 -160 35 -252 -79 -134 -289 -132 -358 3 -116 223 147
425 323 249z"/>
</g>
</svg>
