<?xml version="1.0" standalone="no"?>
<!DOCTYPE svg PUBLIC "-//W3C//DTD SVG 20010904//EN"
 "http://www.w3.org/TR/2001/REC-SVG-20010904/DTD/svg10.dtd">
<svg version="1.0" xmlns="http://www.w3.org/2000/svg"
 width="1024.000000pt" height="1024.000000pt" viewBox="0 0 1024.000000 1024.000000"
 preserveAspectRatio="xMidYMid meet">
<g transform="translate(0.000000,1024.000000) scale(0.050000,-0.050000)"
fill="#000000" stroke="none">
<path d="M7117 13991 c-63 -139 226 -441 689 -719 l206 -124 -27 -99 c-26 -97
-23 -403 6 -502 11 -38 0 -47 -104 -77 -383 -111 -967 -513 -967 -665 0 -90
105 -164 235 -165 152 -1 -540 -318 -916 -419 -172 -47 -478 -78 -635 -66
-121 10 -184 -27 -184 -108 0 -47 284 -310 670 -622 197 -159 194 -142 45
-220 -353 -183 -1295 -1132 -1295 -1304 0 -83 27 -95 280 -121 269 -28 301
-40 108 -40 -76 0 -295 -5 -488 -10 -192 -5 -550 -14 -793 -20 -244 -5 -458
-15 -475 -22 -44 -17 -41 -103 5 -117 44 -14 1695 -50 2335 -51 l462 0 318
-98 c1022 -313 1723 -280 2593 122 l174 81 96 -41 c443 -190 1342 -188 1822 5
l170 68 138 -70 c631 -317 1298 -345 2515 -106 193 38 320 43 1548 59 1417 19
1371 16 1400 112 37 124 5 130 -693 129 -349 -1 -648 -7 -665 -14 -22 -8 -30
2 -30 38 0 32 -44 103 -121 195 -66 79 -225 303 -353 497 -460 701 -808 1059
-1131 1162 -93 30 -93 28 10 195 47 77 117 222 155 323 l70 184 150 -12 c234
-19 474 -66 667 -132 236 -80 331 -47 284 99 -33 105 -582 244 -963 244 l-187
0 -73 115 c-314 491 -931 842 -1484 845 l-85 0 127 155 c470 572 566 880 245
788 -379 -110 -377 -109 -651 -109 -388 2 -589 59 -1385 395 -559 236 -1050
307 -1558 223 -482 -79 -976 -318 -1156 -560 -82 -110 -43 -112 -262 13 -212
121 -418 291 -586 482 -132 151 -213 178 -256 84z m3043 -232 c202 -32 427
-107 741 -246 782 -347 1256 -444 1777 -367 l108 16 -36 -56 c-531 -833 -1538
-1426 -2660 -1567 -765 -96 -1499 245 -1799 838 -116 229 -185 730 -96 693
988 -407 2045 -587 2804 -480 265 38 521 107 535 144 23 60 -26 65 -225 25
-736 -152 -1812 -5 -2736 373 -284 116 -278 102 -100 226 540 375 1060 499
1687 401z m-2056 -1514 c485 -1025 1987 -1237 3481 -492 248 124 344 44 342
-284 -2 -550 -574 -835 -1677 -837 -723 -1 -1057 111 -1890 632 -428 267 -713
415 -977 508 -103 35 -190 69 -195 74 -40 39 745 512 852 513 6 1 34 -51 64
-114z m4832 23 c351 -72 729 -311 966 -610 78 -98 94 -88 -192 -128 -519 -73
-969 -194 -1397 -373 -274 -114 -264 -115 -213 17 49 129 68 328 44 451 -25
125 -21 124 291 -36 265 -136 320 -148 346 -76 32 85 -183 234 -586 407 -186
81 -185 73 -30 196 69 55 142 119 163 142 49 54 370 59 608 10z m-5248 -854
c273 -142 711 -411 712 -437 0 -16 -273 -90 -495 -133 -135 -26 -281 -33 -640
-32 -428 1 -465 -2 -465 -33 0 -150 1106 -122 1663 42 l133 39 237 -119 c440
-222 1209 -400 1403 -326 61 24 9 -36 -139 -158 -1002 -831 -2521 -740 -3717
221 -598 481 -599 482 -483 482 298 0 1377 425 1473 581 18 29 15 30 318 -127z
m6339 -70 c22 -35 -209 -463 -344 -638 -654 -845 -1653 -1142 -2703 -803 -160
51 -591 226 -618 249 -5 4 38 57 95 117 57 60 103 117 103 128 0 11 52 26 115
33 542 61 930 170 1124 318 268 204 1397 536 2001 590 105 9 196 18 204 19 7
2 18 -4 23 -13z m-15 -910 c359 -193 514 -362 987 -1074 135 -203 259 -386
276 -405 38 -43 36 -43 -215 -74 -104 -12 -537 -85 -961 -161 -1406 -251
-1799 -232 -2506 124 -521 262 -811 507 -1005 853 -88 156 -83 161 86 93 689
-280 1346 -319 1946 -116 293 99 868 -29 1474 -329 232 -115 286 -122 286 -37
0 120 -636 410 -1145 522 -157 34 -188 57 -114 80 82 26 433 307 569 455 166
182 128 174 322 69z m-7420 -378 c87 -57 261 -156 387 -219 127 -64 217 -119
200 -124 -16 -6 -78 -21 -139 -34 -277 -61 -751 -252 -774 -313 -25 -65 29
-64 186 4 391 169 974 274 1175 212 818 -252 1706 -130 2414 333 176 115 218
112 253 -20 l22 -82 -143 -160 c-416 -465 -654 -665 -1031 -860 -850 -442
-1544 -460 -2738 -72 -446 145 -820 231 -1099 252 -91 7 -165 20 -165 29 0 90
756 834 1030 1015 258 171 227 168 422 39z m3872 -562 c81 -171 320 -416 576
-592 l146 -101 -78 -33 c-271 -113 -862 -150 -1268 -80 -314 55 -308 46 -127
182 168 125 492 438 616 595 90 113 95 114 135 29z"/>
<path d="M9606 8070 c-41 -38 -81 -70 -90 -70 -28 0 -76 -117 -76 -184 0 -264
416 -358 560 -127 161 262 -175 587 -394 381z m251 -160 c47 -60 36 -120 -28
-163 -67 -44 -167 -27 -214 36 -99 132 139 257 242 127z"/>
<path d="M5813 7910 c-157 -43 -233 -140 -233 -294 0 -381 604 -389 636 -8 19
231 -164 368 -403 302z m201 -173 c65 -62 62 -161 -7 -216 -108 -85 -287 -22
-287 101 0 138 190 212 294 115z"/>
<path d="M14094 7820 c-125 -80 -174 -162 -174 -292 0 -422 590 -425 616 -3
17 273 -225 434 -442 295z m186 -130 c137 -71 130 -257 -12 -311 -150 -57
-273 165 -159 288 56 61 89 65 171 23z"/>
<path d="M10922 7835 c-55 -29 -122 -143 -122 -208 0 -146 224 -225 331 -118
138 138 -40 415 -209 326z m135 -186 c10 -51 -52 -93 -100 -68 -42 23 -47 63
-16 122 26 47 103 11 116 -54z"/>
<path d="M7051 7781 c-61 -118 -14 -221 101 -221 111 0 182 161 110 248 -49
58 -176 42 -211 -27z"/>
<path d="M12457 7707 c-59 -16 -87 -119 -49 -177 58 -89 212 -38 212 70 0 46
-67 121 -105 118 -14 -2 -40 -7 -58 -11z"/>
<path d="M8451 7429 c-58 -59 -36 -153 43 -177 47 -15 126 44 126 94 0 89
-109 143 -169 83z"/>
<path d="M15240 7380 c-57 -57 -54 -180 6 -237 104 -97 274 -26 274 114 0 138
-184 219 -280 123z"/>
<path d="M9780 7046 c-81 -29 -105 -137 -43 -193 115 -104 264 48 154 158 -51
50 -60 53 -111 35z"/>
<path d="M7166 6950 c-112 -47 -157 -193 -96 -310 115 -223 490 -126 490 126
0 122 -81 196 -209 191 -46 -2 -93 2 -103 8 -10 6 -47 -1 -82 -15z m149 -109
c19 -10 51 -23 70 -29 71 -22 26 -124 -70 -158 -99 -36 -184 69 -126 157 34
52 70 61 126 30z"/>
<path d="M11693 6799 c-63 -50 -87 -157 -53 -238 65 -159 298 -163 378 -7 98
192 -152 381 -325 245z m207 -150 c0 -62 -52 -86 -94 -43 -43 42 -19 94 43 94
41 0 51 -10 51 -51z"/>
</g>
</svg>
