<?xml version="1.0" standalone="no"?>
<!DOCTYPE svg PUBLIC "-//W3C//DTD SVG 20010904//EN"
 "http://www.w3.org/TR/2001/REC-SVG-20010904/DTD/svg10.dtd">
<svg version="1.0" xmlns="http://www.w3.org/2000/svg"
 width="1024.000000pt" height="1024.000000pt" viewBox="0 0 1024.000000 1024.000000"
 preserveAspectRatio="xMidYMid meet">
<g transform="translate(0.000000,1024.000000) scale(0.050000,-0.050000)"
fill="#000000" stroke="none">
<path d="M8450 16088 c-1889 -265 -3088 -1169 -3576 -2698 -639 -1996 816
-3897 3081 -4024 l225 -12 0 -82 c0 -45 -13 -347 -29 -672 -17 -324 -44 -1044
-61 -1600 -39 -1278 -59 -1651 -113 -2052 l-44 -321 -691 -26 c-740 -27 -762
-31 -762 -121 0 -117 351 -129 2420 -83 609 13 1962 21 3140 18 2588 -6 3463
-2 3590 19 123 20 171 88 126 181 l-27 55 -330 -5 c-181 -3 -745 1 -1254 7
l-925 13 0 213 c0 236 53 389 211 603 l69 94 225 1 c772 2 1237 353 1484 1122
112 348 82 383 -330 398 -841 30 -1549 -545 -1559 -1266 -1 -60 -17 -98 -63
-150 l-62 -70 12 300 c16 409 83 934 122 960 16 11 86 52 155 90 675 376 928
1298 565 2054 -109 226 -174 236 -469 71 -788 -440 -1081 -1527 -563 -2090
l50 -55 -43 -335 c-24 -184 -46 -373 -48 -420 -4 -97 -18 -105 -63 -37 -23 35
-28 75 -20 146 81 688 -618 1275 -1449 1218 -492 -34 -562 -136 -369 -533 375
-774 929 -1121 1594 -996 31 6 55 -27 124 -163 122 -240 143 -350 152 -785 l8
-375 -763 0 c-420 0 -1236 -6 -1813 -13 l-1050 -13 -43 458 c-62 644 -98 1202
-133 2058 -36 847 -66 1532 -84 1882 l-13 242 238 12 c1004 52 2055 673 2731
1615 1300 1812 -32 4637 -2415 5121 -210 42 -968 72 -1158 46z m770 -258
c2169 -150 3754 -2739 2752 -4495 -566 -993 -1678 -1723 -2695 -1770 l-233
-10 -11 167 c-7 93 -17 375 -23 628 l-12 460 135 190 c175 248 313 417 579
710 499 550 577 685 424 738 -80 28 -119 -1 -356 -272 -115 -131 -294 -335
-397 -452 -104 -118 -232 -272 -285 -342 -54 -70 -98 -124 -99 -120 0 4 -9
231 -19 504 -37 979 -89 1253 -214 1128 -55 -54 -28 -2424 43 -3804 16 -308
39 -803 51 -1100 57 -1436 110 -2325 178 -2996 19 -185 28 -340 21 -345 -25
-15 -909 -11 -906 5 94 493 111 740 198 2796 27 649 68 1527 89 1950 145 2840
153 3500 42 3500 -93 0 -104 -89 -162 -1350 -23 -495 -48 -935 -56 -978 l-14
-79 -103 169 c-263 429 -773 1089 -860 1110 -154 39 -131 -108 62 -382 192
-272 572 -853 681 -1040 64 -110 135 -226 157 -258 43 -62 53 -439 13 -480
-10 -10 -139 -3 -304 17 -2613 309 -3710 2544 -2290 4667 566 846 1778 1463
3034 1543 212 14 270 13 580 -9z m4701 -7220 c96 -400 15 -809 -220 -1106 -74
-94 -291 -284 -324 -284 -16 0 -17 -3 86 416 89 362 89 414 5 414 -54 0 -150
-190 -239 -470 -109 -343 -97 -325 -144 -198 -203 541 38 1146 588 1475 l137
83 36 -85 c20 -47 54 -157 75 -245z m-2012 -1379 c309 -84 575 -299 667 -538
67 -177 55 -220 -36 -123 -142 151 -429 309 -476 263 -53 -54 -8 -125 226
-355 259 -255 260 -263 20 -236 -263 29 -428 117 -634 334 -177 188 -416 562
-416 652 0 59 435 61 649 3z m3069 -382 c16 -17 -106 -325 -173 -437 -199
-330 -585 -553 -953 -552 l-102 1 50 41 c28 22 151 117 275 211 231 175 289
264 195 300 -60 23 -380 -150 -615 -334 -145 -113 25 221 203 400 209 208 475
341 759 380 118 16 340 10 361 -10z"/>
<path d="M12244 10489 c-109 -77 -16 -233 222 -369 129 -74 202 -77 245 -11
55 84 17 144 -172 273 -198 135 -235 148 -295 107z"/>
<path d="M13044 9909 c-60 -42 -55 -95 16 -176 109 -124 266 -148 291 -45 31
122 -205 292 -307 221z"/>
<path d="M11435 9718 c-78 -45 -29 -201 125 -395 211 -267 396 -104 194 170
-151 204 -244 269 -319 225z"/>
<path d="M10489 9186 c-38 -37 -31 -143 24 -356 39 -154 74 -194 165 -186 128
11 141 73 66 310 -81 254 -160 327 -255 232z"/>
<path d="M11995 8898 c-104 -60 44 -381 182 -394 184 -18 180 189 -7 353 -75
66 -116 76 -175 41z"/>
<path d="M10699 8297 c-51 -94 23 -297 107 -297 97 0 123 108 62 260 -38 95
-128 115 -169 37z"/>
</g>
</svg>
