<?xml version="1.0" standalone="no"?>
<!DOCTYPE svg PUBLIC "-//W3C//DTD SVG 20010904//EN"
 "http://www.w3.org/TR/2001/REC-SVG-20010904/DTD/svg10.dtd">
<svg version="1.0" xmlns="http://www.w3.org/2000/svg"
 width="1024.000000pt" height="1024.000000pt" viewBox="0 0 1024.000000 1024.000000"
 preserveAspectRatio="xMidYMid meet">
<g transform="translate(0.000000,1024.000000) scale(0.050000,-0.050000)"
fill="#000000" stroke="none">
<path d="M12367 15264 c-211 -75 -300 -190 -210 -271 49 -45 66 -42 196 27
300 160 678 -21 496 -237 -209 -249 -849 -300 -2524 -202 -465 28 -1028 -5
-1098 -64 -36 -30 -34 -126 3 -157 23 -19 76 -20 245 -2 286 30 619 27 1175
-8 1557 -99 2258 16 2433 400 155 340 -297 665 -716 514z"/>
<path d="M7142 15229 c-584 -163 -1030 -1046 -1331 -2637 -476 -2513 -518
-3672 -168 -4603 229 -608 744 -1099 1267 -1210 66 -14 130 -33 143 -43 15
-12 26 -237 36 -732 14 -788 17 -804 120 -804 117 0 118 5 102 801 l-15 715
147 13 c1114 106 1621 1059 1620 3051 0 1004 -155 2109 -512 3657 -305 1323
-807 1961 -1409 1792z m355 -229 c492 -224 856 -1276 1212 -3503 358 -2244 54
-4004 -758 -4398 -189 -91 -434 -159 -576 -159 l-99 0 13 475 c19 702 47 1316
84 1845 58 854 9 2205 -83 2272 -96 71 -178 -9 -161 -158 62 -550 65 -1367 11
-2334 -22 -390 -49 -1015 -60 -1389 -23 -777 -8 -699 -133 -669 -713 173
-1200 939 -1308 2058 -100 1033 377 4002 814 5069 285 696 698 1048 1044 891z"/>
<path d="M14100 15169 c-292 -82 -561 -382 -469 -523 51 -78 144 -63 182 29
189 461 1088 379 1042 -95 -57 -594 -1487 -803 -4022 -588 -393 33 -433 25
-433 -85 0 -76 71 -101 350 -125 143 -12 391 -33 550 -47 402 -34 2062 -34
2330 1 929 120 1385 373 1441 800 59 440 -458 777 -971 633z"/>
<path d="M10587 12831 c-512 -160 -939 -1303 -1147 -3068 -237 -2010 102
-3007 1088 -3200 l166 -33 13 -300 c41 -954 52 -1030 153 -1030 116 0 114 -21
67 1042 l-13 292 105 14 c466 62 915 462 1124 1002 268 695 245 1720 -65 2890
-503 1903 -920 2570 -1491 2391z m307 -233 c292 -141 620 -888 964 -2198 516
-1959 193 -3398 -812 -3623 -139 -31 -130 -76 -104 525 35 803 -12 2122 -77
2173 -136 105 -173 12 -158 -394 35 -937 37 -1302 14 -1792 -29 -603 -9 -541
-165 -508 -891 189 -1163 1272 -846 3369 263 1735 717 2674 1184 2448z"/>
<path d="M13654 10471 c-483 -172 -912 -1300 -1014 -2666 -75 -988 261 -1567
971 -1676 l81 -13 26 -423 c27 -443 34 -473 119 -473 109 1 114 15 103 304 -5
146 -9 337 -10 425 l0 159 140 25 c658 122 1075 869 991 1774 -47 509 -249
1230 -520 1863 -253 589 -548 822 -887 701z m341 -252 c199 -146 423 -636 673
-1474 291 -971 226 -1723 -186 -2141 -196 -199 -582 -347 -582 -222 0 26 14
345 32 708 44 942 28 1150 -92 1150 -96 0 -101 -24 -109 -503 -7 -486 -48
-1381 -63 -1395 -48 -49 -475 177 -585 310 -285 344 -314 1085 -82 2134 249
1123 642 1692 994 1433z"/>
</g>
</svg>
